<?xml version="1.0" encoding="utf-8"?><svg width="189" height="161" viewBox="0 0 189 161" xmlns="http://www.w3.org/2000/svg" xmlns:xlink="http://www.w3.org/1999/xlink"><svg width="25" height="24" fill="none" viewBox="0 0 25 24" id="bxl-facebook" x="151" y="15" xmlns="http://www.w3.org/2000/svg"><path d="M13.897 20.997V12.8h2.765l.411-3.21h-3.176V7.549c0-.926.258-1.56 1.587-1.56h1.684V3.127A22.336 22.336 0 0014.701 3c-2.444 0-4.122 1.492-4.122 4.23v2.356H7.832v3.209h2.753v8.202h3.312z" fill="#fff"/></svg><svg width="25" height="24" fill="none" viewBox="0 0 25 24" id="bxl-instagram" x="151" y="39" xmlns="http://www.w3.org/2000/svg"><path d="M12.499 7.377A4.623 4.623 0 007.876 12a4.623 4.623 0 104.623-4.623zm0 7.627a3.004 3.004 0 110-6.008 3.004 3.004 0 010 6.008zM17.306 8.285a1.078 1.078 0 100-2.156 1.078 1.078 0 000 2.156z" fill="#fff"/><path d="M21.033 6.11A4.605 4.605 0 0018.4 3.48a6.606 6.606 0 00-2.186-.42c-.963-.042-1.268-.054-3.71-.054s-2.755 0-3.71.054a6.554 6.554 0 00-2.184.42A4.6 4.6 0 003.977 6.11a6.585 6.585 0 00-.419 2.186c-.043.962-.056 1.267-.056 3.71 0 2.442 0 2.753.056 3.71.015.748.156 1.486.419 2.187a4.61 4.61 0 002.634 2.632 6.584 6.584 0 002.185.45c.963.042 1.268.055 3.71.055s2.755 0 3.71-.055a6.615 6.615 0 002.186-.42 4.613 4.613 0 002.633-2.632c.263-.7.404-1.438.419-2.186.043-.962.056-1.267.056-3.71s0-2.753-.056-3.71a6.581 6.581 0 00-.421-2.217zm-1.218 9.533a5.043 5.043 0 01-.311 1.688 2.987 2.987 0 01-1.712 1.71 4.985 4.985 0 01-1.67.312c-.95.044-1.218.055-3.654.055-2.438 0-2.687 0-3.655-.055a4.96 4.96 0 01-1.669-.311 2.985 2.985 0 01-1.719-1.711 5.08 5.08 0 01-.311-1.67c-.043-.95-.053-1.217-.053-3.653 0-2.437 0-2.686.053-3.655a5.038 5.038 0 01.311-1.687c.305-.79.93-1.41 1.719-1.712a5.01 5.01 0 011.669-.311c.951-.043 1.218-.055 3.655-.055s2.687 0 3.654.055a4.96 4.96 0 011.67.31 2.991 2.991 0 011.712 1.713 5.08 5.08 0 01.311 1.669c.043.95.054 1.218.054 3.655 0 2.436 0 2.698-.043 3.654h-.011v-.001z" fill="#fff"/></svg><svg width="25" height="24" fill="none" viewBox="0 0 25 24" id="bxl-linkedin" x="151" y="63" xmlns="http://www.w3.org/2000/svg"><path d="M5.483 7.197a2.188 2.188 0 100-4.376 2.188 2.188 0 000 4.376zM9.737 8.855v12.139h3.769V14.99c0-1.584.298-3.118 2.262-3.118 1.937 0 1.961 1.81 1.961 3.218v5.904H21.5v-6.657c0-3.27-.704-5.783-4.526-5.783-1.835 0-3.065 1.007-3.568 1.96h-.051v-1.66H9.737zm-6.142 0H7.37v12.139H3.595V8.854z" fill="#fff"/></svg><svg width="25" height="24" fill="none" viewBox="0 0 25 24" id="bxl-telegram" x="151" y="87" xmlns="http://www.w3.org/2000/svg"><path d="M21.165 3.717l-17.73 6.837c-1.21.486-1.203 1.161-.222 1.462l4.552 1.42 10.532-6.645c.498-.303.953-.14.579.192l-8.533 7.701h-.002l.002.001-.314 4.692c.46 0 .663-.21.921-.46l2.211-2.15 4.599 3.397c.848.467 1.457.227 1.668-.785l3.019-14.228c.309-1.239-.473-1.8-1.282-1.434z" fill="#fff"/></svg><svg width="25" height="24" fill="none" viewBox="0 0 25 24" id="bxl-youtube" x="151" y="111" xmlns="http://www.w3.org/2000/svg"><path d="M22.093 7.203a2.506 2.506 0 00-1.762-1.766C18.765 5.007 12.5 5 12.5 5s-6.264-.007-7.831.404a2.56 2.56 0 00-1.766 1.778c-.413 1.566-.417 4.814-.417 4.814s-.004 3.264.406 4.814c.23.857.905 1.534 1.763 1.765 1.582.43 7.83.437 7.83.437s6.265.007 7.831-.403a2.515 2.515 0 001.767-1.763c.414-1.565.417-4.812.417-4.812s.02-3.265-.407-4.831zm-11.597 7.802l.005-6 5.207 3.005-5.212 2.995z" fill="#fff"/></svg><svg width="64" height="64" fill="none" viewBox="0 0 64 64" id="icon-around-clock" x="66" y="72" xmlns="http://www.w3.org/2000/svg"><path d="M10.214 8.372A31.997 31.997 0 000 28.372l6.676.762A25.28 25.28 0 119.032 43h4.262l-10-8-3 12 2.49-1.494a31.996 31.996 0 0038.354 17.1A32 32 0 1010.214 8.371z" fill="#fff"/><path d="M39.127 24.72h2.288l-6.591 16.048H32.55l6.576-16.048zM12.28 38h9.712v-2.656h-3.904l2-1.872c.618-.587 1.066-1.158 1.344-1.712a3.995 3.995 0 00.432-1.84c0-.619-.117-1.19-.352-1.712a4.093 4.093 0 00-.976-1.376 4.438 4.438 0 00-1.488-.896 5.218 5.218 0 00-1.856-.32c-.683 0-1.312.112-1.888.336a4.292 4.292 0 00-1.472.96 4.453 4.453 0 00-.976 1.488 5.258 5.258 0 00-.336 1.92h3.424a3.926 3.926 0 01-.048-.512c0-.416.117-.763.352-1.04.245-.278.581-.416 1.008-.416.224 0 .416.042.576.128.17.074.314.181.432.32.117.128.203.277.256.448.064.17.096.346.096.528 0 .17-.027.378-.08.624-.053.245-.192.565-.416.96-.213.394-.544.88-.992 1.456-.448.565-1.067 1.258-1.856 2.08L12.28 38z" fill="#fff"/><path fill-rule="evenodd" clip-rule="evenodd" d="M32.748 33.12h-1.455v-7.184h-4.128l-4.608 7.568v2.016h5.824V38h2.912v-2.48h1.456v-2.4zm-4.367-4.752v4.752h-2.768l2.768-4.752z" fill="#fff"/><path d="M42.16 28.592h5.04L41.698 38h3.456l6.912-12.064H42.16v2.656z" fill="#fff"/></svg><svg width="38" height="15" fill="none" viewBox="0 0 38 15" id="icon-arrow-btn" x="151" xmlns="http://www.w3.org/2000/svg"><path d="M0 8h35.5m0 0L32 4.5M35.5 8L32 11.5" stroke="#fff"/></svg><svg width="66" height="65" fill="none" viewBox="0 0 66 65" id="icon-deal" y="72" xmlns="http://www.w3.org/2000/svg"><path d="M8 4a4 4 0 00-4 4v49a4 4 0 004 4h36a4 4 0 004-4v-5.094c1.265-1.315 2.592-2.754 3.846-4.113l.001-.001.153-.166V57a8 8 0 01-8 8H8a8 8 0 01-8-8V8a8 8 0 018-8h24.515a8 8 0 015.657 2.343l11.485 11.485A8 8 0 0152 19.485v2.198c-1.347 1.876-2.692 4.023-4 6.314v-8.512c0-.163-.01-.325-.03-.485H33V4.03c-.16-.02-.322-.03-.485-.03H8z" fill="#fff"/><path d="M36.892 53c.38-1.181.849-2.53 1.395-4H10a2 2 0 100 4h26.892zM39.847 45a163.356 163.356 0 011.69-4H10a2 2 0 100 4h29.847zM22 27.5a2 2 0 012-2h18a2 2 0 110 4H24a2 2 0 01-2-2zM8 35a2 2 0 012-2h32a2 2 0 110 4H10a2 2 0 01-2-2zM15.393 10c.554 0 1.003.45 1.003 1.004v1.304c1.571.14 2.895.509 3.971 1.107l-1.614 2.747c-.931-.623-1.848-.935-2.75-.935-.552 0-1.003.114-1.352.343-.35.216-.524.465-.524.744 0 .255.138.496.415.725.276.23.64.413 1.09.553l1.288.382c1.44.432 2.48.966 3.12 1.602.64.623.96 1.437.96 2.442 0 .61-.08 1.151-.24 1.622-.16.47-.422.89-.786 1.259-.363.368-.843.693-1.44.973-.581.28-1.294.534-2.138.762v1.362a1.004 1.004 0 01-2.007 0V26.73c-.45 0-.93-.045-1.44-.134-.509-.101-1.01-.229-1.505-.381a13.23 13.23 0 01-1.397-.553A5.771 5.771 0 019 24.994l1.767-2.88c1.367 1.055 2.699 1.583 3.993 1.583.538 0 1.004-.127 1.396-.382.408-.254.611-.585.611-.992 0-.56-.473-.973-1.418-1.24l-1.244-.343a12.41 12.41 0 01-1.898-.668c-.523-.241-.953-.521-1.287-.84a3.05 3.05 0 01-.742-1.067 3.784 3.784 0 01-.24-1.393c0-.547.087-1.074.262-1.583.19-.509.466-.96.83-1.355a4.632 4.632 0 011.396-1.01c.552-.28 1.207-.452 1.963-.516v-1.304c0-.555.45-1.004 1.004-1.004zM51.744 42.84c-3.07 4.486-11.637 14.508-12.922 13.736-1.286-.773 3.544-13.041 6.065-17.857l.213-.407c2.905-5.56 14.122-27.026 19.132-24.015 2.188 1.315.81 5.864-1.732 11.004l1.282.77a2 2 0 01.684 2.745L56.224 42.53a1 1 0 11-1.714-1.03l8.242-13.714-1.167-.701c-3.266 6.16-7.76 12.72-9.582 15.376l-.259.379z" fill="#fff"/></svg><svg width="14" height="14" fill="none" viewBox="0 0 14 14" id="icon-eye" x="130" y="72" xmlns="http://www.w3.org/2000/svg"><path d="M7 8.75a1.75 1.75 0 100-3.5 1.75 1.75 0 000 3.5z" fill="#666"/><path d="M13.421 6.524c-.723-1.119-1.662-2.07-2.714-2.749-1.164-.752-2.45-1.15-3.716-1.15-1.163 0-2.306.332-3.398.987-1.114.668-2.123 1.644-3 2.9a.873.873 0 00-.017.973c.722 1.13 1.652 2.081 2.687 2.752 1.167.755 2.422 1.138 3.728 1.138 1.277 0 2.565-.395 3.724-1.14 1.052-.678 1.988-1.632 2.71-2.76a.88.88 0 00-.004-.95zM7 9.625a2.625 2.625 0 110-5.25 2.625 2.625 0 010 5.25z" fill="#666"/></svg><svg width="79" height="72" fill="none" viewBox="0 0 79 72" id="icon-logistic" xmlns="http://www.w3.org/2000/svg"><path fill-rule="evenodd" clip-rule="evenodd" d="M34.063.233A2 2 0 0135.95.24l32.5 17.5a2 2 0 11-1.897 3.522l-2.468-1.33V31.5a2 2 0 01-4 0v-5.458H9.5V57a2 2 0 01-4 0V19.908l-2.563 1.358a2 2 0 11-1.874-3.533l33-17.5zM9.5 19.042v3h50.584v-3H9.5z" fill="#fff"/><path d="M13 37.5a2 2 0 012-2h7a2 2 0 012 2v7a2 2 0 01-2 2h-7a2 2 0 01-2-2v-7zM17 48.5a2 2 0 00-2 2v7a2 2 0 002 2h7a2 2 0 002-2v-7a2 2 0 00-2-2h-7zM56 37.5H31v26h3.803a5.998 5.998 0 015.197-3c2.221 0 4.16 1.207 5.198 3H60v-22a4 4 0 00-4-4zM63 44.5h9l7 9.5v9.5h-3.802a5.998 5.998 0 00-5.198-3 5.999 5.999 0 00-5.197 3H63v-19z" fill="#fff"/><path d="M45 66.5a5 5 0 11-10 0 5 5 0 0110 0zM70 71.5a5 5 0 100-10 5 5 0 000 10z" fill="#fff"/></svg><svg width="72" height="62" fill="none" viewBox="0 0 72 62" id="icon-sclad" x="79" xmlns="http://www.w3.org/2000/svg"><path d="M36 0L0 13.636v47.572h6V17.78L36 6.416 66 17.78v43.428h6V13.636L36 0z" fill="#fff"/><path d="M25 29.208a1 1 0 011-1h8a1 1 0 011 1v3a1 1 0 01-1 1h-8a1 1 0 01-1-1v-3zM12 38.208a1 1 0 011-1h8a1 1 0 011 1v3a1 1 0 01-1 1h-8a1 1 0 01-1-1v-3zM26 37.208a1 1 0 00-1 1v3a1 1 0 001 1h8a1 1 0 001-1v-3a1 1 0 00-1-1h-8zM39 37.208a1 1 0 00-1 1v3a1 1 0 001 1h8a1 1 0 001-1v-3a1 1 0 00-1-1h-8zM38 29.208a1 1 0 011-1h8a1 1 0 011 1v3a1 1 0 01-1 1h-8a1 1 0 01-1-1v-3zM13 46.208a1 1 0 00-1 1v3a1 1 0 001 1h8a1 1 0 001-1v-3a1 1 0 00-1-1h-8zM25 47.208a1 1 0 011-1h8a1 1 0 011 1v3a1 1 0 01-1 1h-8a1 1 0 01-1-1v-3zM39 46.208a1 1 0 00-1 1v3a1 1 0 001 1h8a1 1 0 001-1v-3a1 1 0 00-1-1h-8zM51 47.208a1 1 0 011-1h8a1 1 0 011 1v3a1 1 0 01-1 1h-8a1 1 0 01-1-1v-3zM13 55.208a1 1 0 00-1 1v3a1 1 0 001 1h8a1 1 0 001-1v-3a1 1 0 00-1-1h-8zM25 56.208a1 1 0 011-1h8a1 1 0 011 1v3a1 1 0 01-1 1h-8a1 1 0 01-1-1v-3zM39 55.208a1 1 0 00-1 1v3a1 1 0 001 1h8a1 1 0 001-1v-3a1 1 0 00-1-1h-8zM51 56.208a1 1 0 011-1h8a1 1 0 011 1v3a1 1 0 01-1 1h-8a1 1 0 01-1-1v-3z" fill="#fff"/></svg><svg width="25" height="24" fill="none" viewBox="0 0 25 24" id="mail" y="137" xmlns="http://www.w3.org/2000/svg"><path d="M20.375 3.75H4.625A2.628 2.628 0 002 6.375v11.25a2.628 2.628 0 002.625 2.625h15.75A2.627 2.627 0 0023 17.625V6.375a2.627 2.627 0 00-2.625-2.625zm-.665 4.342l-6.75 5.25a.75.75 0 01-.92 0l-6.75-5.25a.75.75 0 11.92-1.184L12.5 11.8l6.29-4.892a.75.75 0 01.92 1.184z" fill="#fff"/></svg></svg>