<svg viewBox="0 0 79 72" xmlns="http://www.w3.org/2000/svg" xmlns:xlink="http://www.w3.org/1999/xlink"><style>:root&gt;svg{display:none}:root&gt;svg:target{display:block}</style><svg fill="none" viewBox="0 0 64 64" id="icon-around-clock" xmlns="http://www.w3.org/2000/svg"><path d="M10.214 8.372A31.997 31.997 0 000 28.372l6.676.762A25.28 25.28 0 119.032 43h4.262l-10-8-3 12 2.49-1.494a31.996 31.996 0 0038.354 17.1A32 32 0 1010.214 8.371z" fill="#fff"/><path d="M39.127 24.72h2.288l-6.591 16.048H32.55l6.576-16.048zM12.28 38h9.712v-2.656h-3.904l2-1.872c.618-.587 1.066-1.158 1.344-1.712a3.995 3.995 0 00.432-1.84c0-.619-.117-1.19-.352-1.712a4.093 4.093 0 00-.976-1.376 4.438 4.438 0 00-1.488-.896 5.218 5.218 0 00-1.856-.32c-.683 0-1.312.112-1.888.336a4.292 4.292 0 00-1.472.96 4.453 4.453 0 00-.976 1.488 5.258 5.258 0 00-.336 1.92h3.424a3.926 3.926 0 01-.048-.512c0-.416.117-.763.352-1.04.245-.278.581-.416 1.008-.416.224 0 .416.042.576.128.17.074.314.181.432.32.117.128.203.277.256.448.064.17.096.346.096.528 0 .17-.027.378-.08.624-.053.245-.192.565-.416.96-.213.394-.544.88-.992 1.456-.448.565-1.067 1.258-1.856 2.08L12.28 38z" fill="#fff"/><path fill-rule="evenodd" clip-rule="evenodd" d="M32.748 33.12h-1.455v-7.184h-4.128l-4.608 7.568v2.016h5.824V38h2.912v-2.48h1.456v-2.4zm-4.367-4.752v4.752h-2.768l2.768-4.752z" fill="#fff"/><path d="M42.16 28.592h5.04L41.698 38h3.456l6.912-12.064H42.16v2.656z" fill="#fff"/></svg><svg fill="none" viewBox="0 0 38 15" id="icon-arrow-btn" xmlns="http://www.w3.org/2000/svg"><path d="M0 8h35.5m0 0L32 4.5M35.5 8L32 11.5" stroke="#fff"/></svg><svg fill="none" viewBox="0 0 66 65" id="icon-deal" xmlns="http://www.w3.org/2000/svg"><path d="M8 4a4 4 0 00-4 4v49a4 4 0 004 4h36a4 4 0 004-4v-5.094c1.265-1.315 2.592-2.754 3.846-4.113l.001-.001.153-.166V57a8 8 0 01-8 8H8a8 8 0 01-8-8V8a8 8 0 018-8h24.515a8 8 0 015.657 2.343l11.485 11.485A8 8 0 0152 19.485v2.198c-1.347 1.876-2.692 4.023-4 6.314v-8.512c0-.163-.01-.325-.03-.485H33V4.03a3.91 3.91 0 00-.485-.03H8z" fill="#fff"/><path d="M36.892 53c.38-1.181.849-2.53 1.395-4H10a2 2 0 100 4h26.892zm2.955-8a163.356 163.356 0 011.69-4H10a2 2 0 100 4h29.847zM22 27.5a2 2 0 012-2h18a2 2 0 110 4H24a2 2 0 01-2-2zM8 35a2 2 0 012-2h32a2 2 0 110 4H10a2 2 0 01-2-2zm7.393-25c.554 0 1.003.45 1.003 1.004v1.304c1.571.14 2.895.509 3.971 1.107l-1.614 2.747c-.931-.623-1.848-.935-2.75-.935-.552 0-1.003.114-1.352.343-.35.216-.524.465-.524.744 0 .255.138.496.415.725.276.23.64.413 1.09.553l1.288.382c1.44.432 2.48.966 3.12 1.602.64.623.96 1.437.96 2.442 0 .61-.08 1.151-.24 1.622-.16.47-.422.89-.786 1.259-.363.368-.843.693-1.44.973-.581.28-1.294.534-2.138.762v1.362a1.004 1.004 0 01-2.007 0V26.73a8.4 8.4 0 01-1.44-.134 15.204 15.204 0 01-1.505-.381 13.23 13.23 0 01-1.397-.553A5.771 5.771 0 019 24.994l1.767-2.88c1.367 1.055 2.699 1.583 3.993 1.583.538 0 1.004-.127 1.396-.382.408-.254.611-.585.611-.992 0-.56-.473-.973-1.418-1.24l-1.244-.343a12.41 12.41 0 01-1.898-.668c-.523-.241-.953-.521-1.287-.84a3.05 3.05 0 01-.742-1.067 3.784 3.784 0 01-.24-1.393c0-.547.087-1.074.262-1.583.19-.509.466-.96.83-1.355a4.632 4.632 0 011.396-1.01c.552-.28 1.207-.452 1.963-.516v-1.304c0-.555.45-1.004 1.004-1.004zm36.351 32.84c-3.07 4.486-11.637 14.508-12.922 13.736-1.286-.773 3.544-13.041 6.065-17.857l.213-.407c2.905-5.56 14.122-27.026 19.132-24.015 2.188 1.315.81 5.864-1.732 11.004l1.282.77a2 2 0 01.684 2.745L56.224 42.53a1 1 0 11-1.714-1.03l8.242-13.714-1.167-.701c-3.266 6.16-7.76 12.72-9.582 15.376l-.259.379z" fill="#fff"/></svg><svg fill="none" viewBox="0 0 14 14" id="icon-eye" xmlns="http://www.w3.org/2000/svg"><path d="M7 8.75a1.75 1.75 0 100-3.5 1.75 1.75 0 000 3.5z" fill="#666"/><path d="M13.421 6.524c-.723-1.119-1.662-2.07-2.714-2.749-1.164-.752-2.45-1.15-3.716-1.15-1.163 0-2.306.332-3.398.987-1.114.668-2.123 1.644-3 2.9a.873.873 0 00-.017.973c.722 1.13 1.652 2.081 2.687 2.752 1.167.755 2.422 1.138 3.728 1.138 1.277 0 2.565-.395 3.724-1.14 1.052-.678 1.988-1.632 2.71-2.76a.88.88 0 00-.004-.95zM7 9.625a2.625 2.625 0 110-5.25 2.625 2.625 0 010 5.25z" fill="#666"/></svg><svg fill="none" viewBox="0 0 79 72" id="icon-logistic" xmlns="http://www.w3.org/2000/svg"><path fill-rule="evenodd" clip-rule="evenodd" d="M34.063.233A2 2 0 0135.95.24l32.5 17.5a2 2 0 11-1.897 3.522l-2.468-1.33V31.5a2 2 0 01-4 0v-5.458H9.5V57a2 2 0 01-4 0V19.908l-2.563 1.358a2 2 0 11-1.874-3.533l33-17.5zM9.5 19.042v3h50.584v-3H9.5z" fill="#fff"/><path d="M13 37.5a2 2 0 012-2h7a2 2 0 012 2v7a2 2 0 01-2 2h-7a2 2 0 01-2-2v-7zm4 11a2 2 0 00-2 2v7a2 2 0 002 2h7a2 2 0 002-2v-7a2 2 0 00-2-2h-7zm39-11H31v26h3.803a5.998 5.998 0 015.197-3 6 6 0 015.198 3H60v-22a4 4 0 00-4-4zm7 7h9l7 9.5v9.5h-3.802a5.998 5.998 0 00-5.198-3 5.999 5.999 0 00-5.197 3H63v-19z" fill="#fff"/><path d="M45 66.5a5 5 0 11-10 0 5 5 0 0110 0zm25 5a5 5 0 100-10 5 5 0 000 10z" fill="#fff"/></svg><svg fill="none" viewBox="0 0 72 62" id="icon-sclad" xmlns="http://www.w3.org/2000/svg"><path d="M36 0L0 13.636v47.572h6V17.78L36 6.416 66 17.78v43.428h6V13.636L36 0z" fill="#fff"/><path d="M25 29.208a1 1 0 011-1h8a1 1 0 011 1v3a1 1 0 01-1 1h-8a1 1 0 01-1-1v-3zm-13 9a1 1 0 011-1h8a1 1 0 011 1v3a1 1 0 01-1 1h-8a1 1 0 01-1-1v-3zm14-1a1 1 0 00-1 1v3a1 1 0 001 1h8a1 1 0 001-1v-3a1 1 0 00-1-1h-8zm13 0a1 1 0 00-1 1v3a1 1 0 001 1h8a1 1 0 001-1v-3a1 1 0 00-1-1h-8zm-1-8a1 1 0 011-1h8a1 1 0 011 1v3a1 1 0 01-1 1h-8a1 1 0 01-1-1v-3zm-25 17a1 1 0 00-1 1v3a1 1 0 001 1h8a1 1 0 001-1v-3a1 1 0 00-1-1h-8zm12 1a1 1 0 011-1h8a1 1 0 011 1v3a1 1 0 01-1 1h-8a1 1 0 01-1-1v-3zm14-1a1 1 0 00-1 1v3a1 1 0 001 1h8a1 1 0 001-1v-3a1 1 0 00-1-1h-8zm12 1a1 1 0 011-1h8a1 1 0 011 1v3a1 1 0 01-1 1h-8a1 1 0 01-1-1v-3zm-38 8a1 1 0 00-1 1v3a1 1 0 001 1h8a1 1 0 001-1v-3a1 1 0 00-1-1h-8zm12 1a1 1 0 011-1h8a1 1 0 011 1v3a1 1 0 01-1 1h-8a1 1 0 01-1-1v-3zm14-1a1 1 0 00-1 1v3a1 1 0 001 1h8a1 1 0 001-1v-3a1 1 0 00-1-1h-8zm12 1a1 1 0 011-1h8a1 1 0 011 1v3a1 1 0 01-1 1h-8a1 1 0 01-1-1v-3z" fill="#fff"/></svg></svg>