<svg width="120" height="24" fill="none" xmlns="http://www.w3.org/2000/svg"><g clip-path="url(#clip0)" fill="#fff"><path d="M6.532 17.08H4.484v6.1H0V7.247h4.484v6.191h2.162l3.801-6.19h4.734l-4.984 7.692 5.03 8.24H10.15l-3.619-6.1z"/><path d="M27.288 20.084h-6.737l-1.252 3.096h-4.598l7.034-15.933h4.438l7.056 15.933H28.54l-1.252-3.096zm-1.32-3.323l-2.048-5.098-2.049 5.098h4.097zm24.04-9.514V23.18h-4.46V10.82h-6.055v12.36h-4.438V7.247h14.953zm3.406 0h4.439v9.355l6.577-9.355h4.234V23.18h-4.438v-9.332L57.67 23.18h-4.257V7.247zm31.508 3.573h-4.87v12.36h-4.439V10.82H70.72V7.248h14.202v3.574zm12.271 9.264h-6.737l-1.252 3.096h-4.598L91.64 7.247h4.439l7.056 15.933h-4.69l-1.251-3.096zm-1.32-3.323l-2.049-5.098-2.048 5.098h4.097zM120 7.247V23.18h-4.438V10.82h-4.575l-.091 2.595c-.076 2.277-.266 4.128-.569 5.554-.289 1.426-.789 2.534-1.503 3.323-.713.774-1.722 1.161-3.027 1.161-.607 0-1.289-.091-2.048-.273l.25-3.687c.197.045.402.068.615.068.592 0 1.047-.235 1.365-.706.319-.47.547-1.123.683-1.957.137-.85.228-1.95.273-3.3l.228-6.35H120zM.019 0H15.18v3.577H.019V0z"/></g><defs><clipPath id="clip0"><path fill="#fff" d="M0 0h120v23.453H0z"/></clipPath></defs></svg>