<svg width="464" height="110" fill="none" xmlns="http://www.w3.org/2000/svg"><path fill-rule="evenodd" clip-rule="evenodd" d="M98.868 60.529c4.073 4.575 10.439 13.874 10.46 13.83 5.119-10.698 4.812-22.135 2.814-32.39-1.654-8.486-7.585-17.498-13.712-23.511 0 0-6.45-7.035-16.9-12.298C74.51 2.625 65.874-.006 56.017 0c-1.02 0-2.052.03-3.097.088-7.005.394-14.72 1.999-22.426 5.978C19.079 11.96 8.22 24.026 4.336 33.436 1.472 40.372.002 47.88 0 54.115c0 .89.03 1.755.09 2.589.771 10.75 5.364 18.03 5.542 18.09.207.069 8.317-14.462 19.734-26.082 4.234-4.308 8.475-8.4 12.697-11.74 7.526-5.956 14.366-9.86 14.412-9.86.063 0-5.547-3.967-12.77-7.567-9.038-4.504-20.115-8.667-16.968-7.76 5.663 1.63 11.332 3.273 17.164 5.25 2.392 1.005 5.336 2.085 7.85 3.173 3.233 1.4 5.943 2.71 9.018 4.003l1.229-.422c5.022-2.29 9.665-4.582 14.813-6.486 5.147-1.905 11.262-3.608 16.6-5.065-5.526 2.737-11.45 5.4-17.103 8.073-4.085 2.09-7.61 3.978-10.621 6.389 4.492 3.534 11.392 7.273 15.442 11 9.757 7.627 15.203 14.706 21.74 22.83z" fill="#fff"/><path fill-rule="evenodd" clip-rule="evenodd" d="M57.33 56.272c-7.748 0-14.026 6.075-14.026 13.568 0 7.492 6.278 13.567 14.027 13.567 7.748 0 14.028-6.075 14.028-13.567 0-7.493-6.28-13.568-14.028-13.568zM17.426 93.52a14.046 14.046 0 01-.602-4.727c3-9.77 6.822-20.853 13.747-30.605 6.22-8.762 15.127-18.849 24.84-25.472.478-.325 1.035-.332 1.516-.64.43.271 1.01.391 1.434.668 8.603 5.644 15.644 12.453 21.724 20.789 7.114 9.753 14.436 22.031 17.4 33.888a16.659 16.659 0 01-.603 6.1c-12.936 11.912-26.8 15.831-40.664 15.831-12.621 0-29.258-4.859-38.792-15.832zm429.752-16.088L464 19.054h-19.441l-11.924 41.38a29.556 29.556 0 01-5.929 2.537c-2.056.62-3.76.94-5.144.94-2.22 0-3.855-.32-4.926-.94-1.054-.621-1.719-1.544-1.959-2.75-.247-1.313-.18-2.929.196-4.827.382-1.916 1.011-4.365 1.88-7.381l8.345-28.959h-19.556l-10.953 38.008c-2.116 7.347-1.975 12.847.443 16.501 2.417 3.656 6.709 5.484 12.892 5.484 3.889 0 7.446-.693 10.666-2.058 3.2-1.367 6.871-3.372 11.003-5.998l-1.855 6.44h19.44zm-97.375 1.615c-4.609 0-8.822-.462-12.627-1.403-3.827-.94-6.892-2.022-9.202-3.281l4.433-15.385h1.612c.74.657 1.574 1.384 2.539 2.183.945.799 2.356 1.633 4.23 2.501 1.572.8 3.426 1.474 5.534 2.06 2.11.567 4.514.851 7.168.851 2.751 0 5.274-.39 7.608-1.19 2.317-.797 3.728-2.075 4.224-3.796.393-1.366.213-2.378-.557-3.07-.767-.692-2.431-1.367-5.042-1.987-1.382-.337-3.151-.71-5.292-1.117-2.144-.392-4.003-.853-5.601-1.367-4.484-1.42-7.535-3.531-9.198-6.317-1.658-2.804-1.837-6.459-.53-11.001.748-2.591 2.103-5.056 4.038-7.364 1.931-2.29 4.402-4.346 7.408-6.158 2.992-1.755 6.473-3.175 10.412-4.204 3.943-1.047 8.207-1.562 12.797-1.562 4.382 0 8.287.409 11.712 1.224 3.425.817 6.235 1.792 8.43 2.928l-4.253 14.764h-1.555c-.526-.48-1.399-1.137-2.606-1.952a29.514 29.514 0 00-3.608-2.095c-1.431-.692-3.085-1.277-4.985-1.72a26.056 26.056 0 00-5.989-.675c-2.807 0-5.326.444-7.52 1.348-2.216.905-3.526 2.095-3.961 3.602-.378 1.314-.2 2.343.548 3.106.748.764 2.62 1.508 5.634 2.236 1.556.39 3.365.762 5.426 1.117a40.69 40.69 0 015.828 1.492c4.089 1.347 6.911 3.335 8.474 5.944 1.556 2.625 1.711 6.102.465 10.432-.788 2.733-2.221 5.341-4.304 7.825-2.096 2.467-4.633 4.56-7.647 6.264-3.201 1.828-6.739 3.247-10.636 4.26-3.913 1.01-8.382 1.507-13.407 1.507zm-49.898-7.807l-1.783 6.192h19.346l11.443-39.71c1.979-6.867 1.005-11.977-2.946-15.313-3.947-3.355-11.299-5.022-22.055-5.022a85.64 85.64 0 00-13.318 1.065c-4.491.71-7.781 1.33-9.864 1.845l-4.059 14.089h1.668a84.929 84.929 0 019.869-2.982c3.297-.78 6.103-1.17 8.398-1.17 5.065 0 8.699.62 10.887 1.845 2.19 1.224 2.816 3.46 1.891 6.672l-.094.32c-5.734.354-11.126.833-16.199 1.454-5.073.62-9.605 1.739-13.595 3.336-3.917 1.544-7.204 3.673-9.81 6.335-2.626 2.66-4.568 6.174-5.815 10.504-1.519 5.27-.955 9.635 1.709 13.095 2.644 3.46 6.733 5.2 12.252 5.2 2.96 0 5.336-.215 7.102-.623 1.775-.425 3.636-1.028 5.611-1.827 2.024-.835 3.666-1.668 4.965-2.485 1.303-.833 2.768-1.774 4.397-2.82zm2.604-9.033l3.507-12.171c-3.393.319-6.144.585-8.234.798-2.115.23-4.236.675-6.397 1.33-1.865.551-3.42 1.402-4.691 2.521-1.274 1.135-2.178 2.625-2.721 4.506-.787 2.733-.532 4.614.746 5.643 1.282 1.012 3.448 1.525 6.52 1.525 1.709 0 3.561-.372 5.553-1.1a23.485 23.485 0 005.717-3.052zm-61.907 16.36c-7.929 0-13.256-1.525-15.98-4.577-2.743-3.052-3.108-8.038-1.114-14.958l7.864-27.29h-7.456l3.658-12.688h7.453l4.807-16.678h19.442l-4.806 16.678h18.74l-3.657 12.688h-18.739l-5.957 20.672a249.538 249.538 0 00-1.488 5.358c-.402 1.526-.492 2.892-.289 4.099.16 1.224.812 2.183 1.917 2.892 1.105.71 2.918 1.064 5.441 1.064 1.043 0 2.47-.213 4.276-.62 1.811-.426 3.093-.798 3.86-1.153h1.668l-3.702 12.845a70.234 70.234 0 01-7.086 1.225c-2.457.302-5.4.443-8.852.443zm-52.588-30.98l-1.095-25.498-15.807 25.498h16.902zm-56.06 29.845L182.217.034h22.666l5.655 77.398h-21.395l-.641-15.81h-25.967l-9.734 15.81h-20.847zm212.321 18.709v-2.458c-.186-2.071-1.376-3.108-3.575-3.108h-3.677c-2.494 0-3.739 1.037-3.739 3.108v2.427c.089 2.05 1.335 3.074 3.739 3.074h3.677c1.128 0 2.007-.292 2.634-.876a2.856 2.856 0 00.941-2.167zm-16.344.879V92.9c.02-1.27.318-2.357.888-3.261.573-.903 1.378-1.588 2.419-2.055 1.038-.467 2.246-.699 3.619-.699h4.843c1.463 0 2.549.254 3.252.762.703.509 1.143.935 1.323 1.277v-2.039h5.352v16.735c0 1.359-.267 2.514-.802 3.463-.535.948-1.349 1.671-2.442 2.169-1.09.498-2.438.747-4.037.747h-7.709c-1.171 0-2.233-.234-3.187-.704-.955-.468-1.701-1.126-2.236-1.971-.535-.847-.803-1.811-.803-2.891h5.383c0 .481.212.912.638 1.297.425.386.977.578 1.653.578h5.481c.828 0 1.488-.219 1.976-.658.487-.436.733-1.026.733-1.77v-3.335c-.09.268-.323.586-.701.953-.379.365-.888.687-1.526.964-.634.276-1.378.415-2.223.415h-5.188c-1.438 0-2.659-.261-3.659-.782-1.003-.523-1.759-1.228-2.269-2.116-.508-.888-.769-1.875-.778-2.96zm24.697 5.857V86.885h5.352v2.323c.468-.558.856-.98 1.166-1.264.31-.285.743-.533 1.303-.744.557-.21 1.263-.315 2.114-.315h2.669c2.629 0 4.437.584 5.427 1.755.988 1.17 1.504 2.753 1.539 4.75h-5.353c-.153-.621-.313-1.117-.485-1.49-.17-.37-.471-.685-.906-.94-.433-.256-1.043-.385-1.829-.385h-1.968c-1.071 0-1.951.369-2.642 1.103-.69.737-1.035 1.652-1.035 2.749v8.45h-5.352zm38.442-9.224c-.029-2.03-1.18-3.045-3.446-3.045h-3.647c-1.253 0-2.174.244-2.762.729-.587.484-.883 1.245-.883 2.284l.001 2.616c0 .997.295 1.728.882 2.193.588.468 1.509.709 2.762.725h3.647c1.185 0 2.049-.225 2.589-.676.541-.451.828-1.208.857-2.273v-2.553zm-9.092-6.736h7.48c1.505 0 2.776.272 3.809.814 1.036.543 1.808 1.29 2.319 2.242.513.95.78 2.036.807 3.253l.001 3.368c-.028 1.206-.305 2.284-.836 3.232-.53.949-1.311 1.694-2.341 2.238-1.033.543-2.286.814-3.759.814h-7.48c-1.453 0-2.709-.267-3.764-.799-1.053-.532-1.854-1.277-2.401-2.236-.546-.96-.824-2.054-.833-3.282v-3.335c.01-1.198.275-2.273.798-3.229.522-.957 1.308-1.71 2.358-2.258 1.051-.548 2.332-.822 3.842-.822zm29.957 15.961h-5.126c-1.448 0-2.694-.247-3.737-.74a5.232 5.232 0 01-2.397-2.244c-.555-1.005-.835-2.254-.835-3.752v-9.296h5.386v7.968c0 1.513.377 2.62 1.133 3.32.758.701 1.916 1.051 3.482 1.051h2.094c1.39 0 2.506-.383 3.349-1.15.843-.766 1.263-1.84 1.263-3.22v-7.97h5.353v16.033h-5.353v-2.039a6.79 6.79 0 01-.815 1.019c-.258.259-.696.492-1.311.703-.613.211-1.443.317-2.486.317zm29.891-6.705V93.58c0-2.002-1.249-3.005-3.748-3.005h-3.834c-1.143 0-2.007.264-2.586.792-.581.526-.879 1.265-.894 2.213l.001 2.593c.029 2.008 1.19 3.011 3.479 3.011h3.834c2.499 0 3.748-1.003 3.748-3.011zm-6.457-9.288h4.843c2.256 0 3.982.527 5.176 1.584 1.193 1.057 1.791 2.6 1.791 4.628v3.496c0 1.19-.255 2.261-.764 3.212-.509.952-1.288 1.702-2.338 2.249-1.051.549-2.339.823-3.865.823h-4.81c-1.075 0-2.031-.227-2.867-.685-.835-.454-1.426-.962-1.771-1.52l.001 8.615h-5.353V86.885h5.353v1.904a8.382 8.382 0 011.948-1.379c.691-.35 1.576-.525 2.656-.525z" fill="#fff"/></svg>