<svg width="150" height="36" fill="none" xmlns="http://www.w3.org/2000/svg"><path fill-rule="evenodd" clip-rule="evenodd" d="M31.962 19.81c1.316 1.497 3.374 4.54 3.381 4.526 1.655-3.501 1.556-7.245.91-10.6-.535-2.778-2.452-5.727-4.433-7.695 0 0-2.085-2.303-5.463-4.025C24.087.859 21.295-.002 18.109 0c-.33 0-.663.01-1.001.029-2.265.129-4.758.654-7.25 1.956-3.69 1.93-7.2 5.878-8.456 8.958C.476 13.213 0 15.669 0 17.71c0 .291.01.575.029.847.25 3.518 1.734 5.901 1.792 5.92.066.023 2.688-4.732 6.38-8.535 1.368-1.41 2.739-2.75 4.104-3.843 2.433-1.949 4.644-3.226 4.659-3.226.02 0-1.793-1.299-4.128-2.477C9.913 4.922 6.332 3.56 7.35 3.856c1.83.534 3.664 1.072 5.55 1.718.772.33 1.724.683 2.537 1.04 1.045.457 1.92.886 2.915 1.31l.397-.139c1.624-.75 3.125-1.5 4.789-2.123 1.664-.623 3.64-1.18 5.366-1.657-1.786.896-3.701 1.767-5.529 2.642-1.32.684-2.46 1.302-3.433 2.09 1.452 1.158 3.683 2.381 4.992 3.6 3.154 2.497 4.915 4.814 7.028 7.472z" fill="#fff"/><path fill-rule="evenodd" clip-rule="evenodd" d="M18.534 18.416c-2.505 0-4.535 1.989-4.535 4.44 0 2.453 2.03 4.44 4.535 4.44 2.505 0 4.534-1.987 4.534-4.44 0-2.451-2.03-4.44-4.534-4.44zm-12.9 12.19a4.65 4.65 0 01-.196-1.546c.97-3.198 2.206-6.825 4.445-10.017 2.01-2.867 4.89-6.168 8.03-8.336.154-.107.334-.109.49-.21.139.09.327.129.463.22 2.782 1.846 5.058 4.075 7.023 6.803 2.3 3.192 4.667 7.21 5.625 11.09a5.516 5.516 0 01-.195 1.997c-4.182 3.898-8.664 5.18-13.145 5.18-4.08 0-9.459-1.59-12.54-5.18zm138.928-5.265L150 6.236h-6.285l-3.855 13.542a9.48 9.48 0 01-1.916.83c-.665.204-1.216.309-1.663.309-.718 0-1.246-.105-1.593-.308a1.304 1.304 0 01-.633-.9c-.08-.43-.058-.959.064-1.58.123-.627.326-1.429.607-2.416l2.698-9.477h-6.322l-3.541 12.439c-.684 2.404-.638 4.204.143 5.4.782 1.197 2.169 1.795 4.168 1.795 1.257 0 2.407-.227 3.448-.674 1.035-.447 2.221-1.103 3.557-1.963l-.6 2.108h6.285zm-31.479.529c-1.49 0-2.852-.151-4.082-.46-1.237-.307-2.228-.66-2.975-1.073l1.433-5.035h.521c.24.215.509.453.821.715.306.26.762.534 1.368.818.508.262 1.107.482 1.789.674.682.186 1.459.279 2.317.279.889 0 1.705-.128 2.459-.39.749-.26 1.206-.679 1.366-1.242.127-.447.069-.778-.18-1.005-.248-.226-.786-.447-1.63-.65a35.512 35.512 0 00-1.711-.366 14.218 14.218 0 01-1.811-.447c-1.449-.465-2.436-1.156-2.973-2.067-.536-.918-.594-2.114-.171-3.6.241-.849.679-1.656 1.305-2.41.624-.75 1.423-1.423 2.395-2.016.967-.575 2.092-1.04 3.366-1.376 1.274-.343 2.653-.511 4.137-.511 1.416 0 2.678.133 3.786.4 1.107.268 2.015.587 2.725.958l-1.375 4.832h-.502a8.13 8.13 0 00-.843-.639 9.458 9.458 0 00-1.167-.685 7.637 7.637 0 00-1.611-.563 8.318 8.318 0 00-1.936-.22c-.908 0-1.722.144-2.431.44-.716.296-1.14.686-1.28 1.18-.123.43-.065.766.176 1.016.242.25.848.493 1.822.731.503.128 1.088.25 1.754.366a12.99 12.99 0 011.884.488c1.322.441 2.234 1.091 2.74 1.945.503.86.553 1.998.15 3.415-.255.894-.718 1.748-1.392 2.56a9.074 9.074 0 01-2.471 2.05 13.902 13.902 0 01-3.439 1.395c-1.265.33-2.71.493-4.334.493zm-16.13-2.555l-.577 2.026h6.254l3.699-12.996c.64-2.247.325-3.92-.952-5.011-1.276-1.098-3.653-1.644-7.13-1.644-1.41 0-2.848.116-4.306.349-1.451.232-2.515.435-3.189.604l-1.312 4.61h.54a27.22 27.22 0 013.19-.975c1.066-.255 1.973-.383 2.715-.383 1.637 0 2.812.203 3.52.604.707.4.91 1.132.611 2.183l-.03.105a86.638 86.638 0 00-5.237.476c-1.64.203-3.105.569-4.395 1.091-1.266.506-2.329 1.203-3.172 2.074-.849.87-1.476 2.02-1.88 3.437-.49 1.725-.308 3.154.553 4.286.855 1.133 2.177 1.702 3.96 1.702.957 0 1.726-.07 2.297-.204a12.645 12.645 0 001.814-.598 10.628 10.628 0 001.605-.813c.42-.273.895-.58 1.421-.923zm.84-2.956l1.135-3.984c-1.097.105-1.986.192-2.662.262-.684.075-1.37.22-2.068.435a3.935 3.935 0 00-1.517.825c-.412.372-.704.86-.88 1.475-.254.894-.171 1.51.242 1.846.414.332 1.114.5 2.108.5.552 0 1.15-.122 1.795-.36a7.557 7.557 0 001.848-1zm-20.012 5.354c-2.563 0-4.286-.5-5.166-1.498-.887-.999-1.005-2.63-.36-4.895l2.542-8.932h-2.41l1.182-4.152h2.41L77.533.778h6.285l-1.554 5.458h6.058l-1.182 4.152h-6.058l-1.926 6.766a84.99 84.99 0 00-.48 1.753c-.13.5-.16.947-.094 1.342.052.4.263.714.62.946.357.232.943.348 1.759.348.337 0 .798-.07 1.382-.203.585-.139 1-.26 1.248-.377h.54l-1.198 4.204a22.12 22.12 0 01-2.29.4c-.795.1-1.746.146-2.862.146zm-17-10.139l-.355-8.345-5.11 8.345h5.464zm-18.123 9.767L58.906.011h7.328l1.828 25.33h-6.916l-.208-5.174h-8.394l-3.147 5.174h-6.74zm68.638 6.123v-.804c-.06-.678-.445-1.017-1.156-1.017h-1.189c-.806 0-1.208.339-1.208 1.017v.794c.029.67.431 1.006 1.208 1.006h1.189c.365 0 .649-.095.852-.286a.94.94 0 00.304-.71zm-5.284.288v-1.348c.007-.416.103-.772.287-1.068.185-.295.446-.52.782-.672.336-.153.726-.229 1.17-.229h1.566c.473 0 .824.083 1.051.25.227.166.37.305.428.418v-.668h1.73v5.477c0 .445-.086.823-.259 1.133-.173.31-.436.547-.79.71-.352.163-.788.245-1.305.245h-2.492c-.378 0-.722-.077-1.03-.23a1.75 1.75 0 01-.723-.646 1.75 1.75 0 01-.26-.946h1.741c0 .157.068.299.206.425a.76.76 0 00.534.189h1.772c.268 0 .481-.072.639-.216a.746.746 0 00.237-.579v-1.091c-.029.087-.105.191-.227.311-.122.12-.287.225-.493.316a1.77 1.77 0 01-.719.136h-1.677c-.465 0-.859-.086-1.183-.256a1.764 1.764 0 01-.733-.692 1.963 1.963 0 01-.252-.97zm7.984 1.917v-5.234h1.73v.76a4.71 4.71 0 01.377-.413c.1-.094.24-.175.422-.244.18-.068.408-.103.683-.103h.863c.849 0 1.434.191 1.754.574.32.383.486.901.498 1.555h-1.731a2.73 2.73 0 00-.157-.487.697.697 0 00-.292-.308c-.14-.084-.338-.126-.592-.126h-.636c-.346 0-.631.12-.854.36a1.277 1.277 0 00-.335.9v2.766h-1.73zm12.428-3.019c-.01-.664-.382-.996-1.115-.996h-1.179c-.405 0-.702.08-.892.238-.19.159-.286.408-.286.748v.856c0 .326.096.565.286.718.19.153.487.231.892.236h1.179c.384 0 .663-.073.837-.22.175-.148.268-.396.278-.745v-.835zm-2.94-2.204h2.418c.487 0 .898.088 1.232.266.334.178.584.422.749.733.166.312.253.667.261 1.065v1.102a2.242 2.242 0 01-.27 1.058 1.813 1.813 0 01-.756.733c-.335.177-.74.266-1.216.266h-2.418c-.47 0-.875-.087-1.217-.261a1.816 1.816 0 01-.776-.732 2.195 2.195 0 01-.269-1.074V30.51c.003-.392.089-.744.258-1.057.169-.313.423-.559.762-.738.34-.18.754-.27 1.242-.27zm9.685 5.223h-1.658c-.468 0-.87-.08-1.208-.242a1.695 1.695 0 01-.774-.735c-.18-.328-.27-.737-.27-1.227v-3.043H131v2.608c0 .495.122.857.366 1.087.245.229.619.344 1.126.344h.677c.449 0 .81-.126 1.082-.377.273-.25.409-.602.409-1.054v-2.608h1.73v5.247h-1.73v-.667c-.092.138-.18.249-.264.333-.083.085-.225.161-.424.23-.198.07-.466.104-.803.104zm9.663-2.194v-.849c0-.655-.404-.983-1.212-.983h-1.239c-.37 0-.649.086-.837.259-.187.172-.283.414-.288.724v.849c.009.657.385.985 1.125.985h1.239c.808 0 1.212-.328 1.212-.985zm-2.088-3.04h1.566c.729 0 1.287.173 1.673.519.386.345.579.85.579 1.514v1.144c0 .39-.082.74-.247 1.051a1.746 1.746 0 01-.756.737c-.339.18-.756.269-1.249.269h-1.555a1.88 1.88 0 01-.927-.224c-.27-.15-.461-.315-.572-.498v2.82h-1.731v-7.332h1.731v.623c.196-.186.406-.337.63-.451.223-.115.509-.172.858-.172z" fill="#fff"/></svg>