<svg width="25" height="24" viewBox="0 0 25 24" fill="none" xmlns="http://www.w3.org/2000/svg">
<path d="M22.093 7.20301C21.863 6.34501 21.188 5.66801 20.331 5.43701C18.765 5.00701 12.5 5.00001 12.5 5.00001C12.5 5.00001 6.236 4.99301 4.669 5.40401C3.829 5.63301 3.135 6.32501 2.903 7.18201C2.49 8.74801 2.486 11.996 2.486 11.996C2.486 11.996 2.482 15.26 2.892 16.81C3.122 17.667 3.797 18.344 4.655 18.575C6.237 19.005 12.485 19.012 12.485 19.012C12.485 19.012 18.75 19.019 20.316 18.609C21.172 18.379 21.85 17.703 22.083 16.846C22.497 15.281 22.5 12.034 22.5 12.034C22.5 12.034 22.52 8.76901 22.093 7.20301ZM10.496 15.005L10.501 9.00501L15.708 12.01L10.496 15.005Z" fill="white"/>
</svg>
