<svg width="25" height="24" viewBox="0 0 25 24" fill="none" xmlns="http://www.w3.org/2000/svg">
<path d="M12.499 7.37695C9.945 7.37695 7.876 9.44695 7.876 12C7.876 14.554 9.945 16.624 12.499 16.624C15.051 16.624 17.122 14.554 17.122 12C17.122 9.44695 15.051 7.37695 12.499 7.37695ZM12.499 15.004C10.84 15.004 9.495 13.659 9.495 12.001C9.495 10.342 10.84 8.99795 12.499 8.99795C14.158 8.99795 15.501 10.342 15.501 12.001C15.501 13.659 14.158 15.004 12.499 15.004Z" fill="white"/>
<path d="M17.306 8.28491C17.9014 8.28491 18.384 7.80227 18.384 7.20691C18.384 6.61154 17.9014 6.12891 17.306 6.12891C16.7106 6.12891 16.228 6.61154 16.228 7.20691C16.228 7.80227 16.7106 8.28491 17.306 8.28491Z" fill="white"/>
<path d="M21.033 6.11088C20.564 4.90188 19.609 3.94588 18.4 3.47888C17.701 3.21588 16.962 3.07488 16.214 3.05888C15.251 3.01688 14.946 3.00488 12.504 3.00488C10.062 3.00488 9.749 3.00488 8.794 3.05888C8.048 3.07388 7.309 3.21488 6.61 3.47888C5.4 3.94588 4.445 4.90188 3.977 6.11088C3.714 6.81088 3.573 7.54888 3.558 8.29688C3.515 9.25888 3.502 9.56388 3.502 12.0069C3.502 14.4489 3.502 14.7599 3.558 15.7169C3.573 16.4649 3.714 17.2029 3.977 17.9039C4.446 19.1119 5.401 20.0679 6.611 20.5359C7.307 20.8079 8.046 20.9619 8.796 20.9859C9.759 21.0279 10.064 21.0409 12.506 21.0409C14.948 21.0409 15.261 21.0409 16.216 20.9859C16.963 20.9709 17.702 20.8289 18.402 20.5669C19.611 20.0979 20.566 19.1429 21.035 17.9339C21.298 17.2339 21.439 16.4959 21.454 15.7479C21.497 14.7859 21.51 14.4809 21.51 12.0379C21.51 9.59488 21.51 9.28488 21.454 8.32788C21.441 7.56988 21.301 6.81888 21.033 6.11088ZM19.815 15.6429C19.808 16.2189 19.704 16.7899 19.504 17.3309C19.199 18.1179 18.578 18.7399 17.792 19.0419C17.257 19.2409 16.693 19.3449 16.122 19.3529C15.172 19.3969 14.904 19.4079 12.468 19.4079C10.03 19.4079 9.781 19.4079 8.813 19.3529C8.244 19.3459 7.678 19.2409 7.144 19.0419C6.355 18.7409 5.73 18.1189 5.425 17.3309C5.229 16.7969 5.123 16.2319 5.114 15.6619C5.071 14.7119 5.061 14.4439 5.061 12.0079C5.061 9.57088 5.061 9.32188 5.114 8.35288C5.121 7.77688 5.225 7.20688 5.425 6.66588C5.73 5.87688 6.355 5.25588 7.144 4.95388C7.678 4.75588 8.244 4.65088 8.813 4.64288C9.764 4.59988 10.031 4.58788 12.468 4.58788C14.905 4.58788 15.155 4.58788 16.122 4.64288C16.693 4.64988 17.257 4.75488 17.792 4.95388C18.578 5.25688 19.199 5.87888 19.504 6.66588C19.7 7.19988 19.806 7.76488 19.815 8.33488C19.858 9.28588 19.869 9.55288 19.869 11.9899C19.869 14.4259 19.869 14.6879 19.826 15.6439H19.815V15.6429Z" fill="white"/>
</svg>
