<svg width="25" height="24" viewBox="0 0 25 24" fill="none" xmlns="http://www.w3.org/2000/svg">
<path d="M5.483 7.19704C6.6914 7.19704 7.671 6.21744 7.671 5.00904C7.671 3.80065 6.6914 2.82104 5.483 2.82104C4.2746 2.82104 3.295 3.80065 3.295 5.00904C3.295 6.21744 4.2746 7.19704 5.483 7.19704Z" fill="white"/>
<path d="M9.737 8.85493V20.9939H13.506V14.9909C13.506 13.4069 13.804 11.8729 15.768 11.8729C17.705 11.8729 17.729 13.6839 17.729 15.0909V20.9949H21.5V14.3379C21.5 11.0679 20.796 8.55493 16.974 8.55493C15.139 8.55493 13.909 9.56193 13.406 10.5149H13.355V8.85493H9.737ZM3.595 8.85493H7.37V20.9939H3.595V8.85493Z" fill="white"/>
</svg>
