<svg width="14" height="14" viewBox="0 0 14 14" fill="none" xmlns="http://www.w3.org/2000/svg">
<path d="M7 8.75C7.9665 8.75 8.75 7.9665 8.75 7C8.75 6.0335 7.9665 5.25 7 5.25C6.0335 5.25 5.25 6.0335 5.25 7C5.25 7.9665 6.0335 8.75 7 8.75Z" fill="#666666"/>
<path d="M13.4214 6.52422C12.6979 5.40531 11.7592 4.45484 10.707 3.77535C9.54295 3.02285 8.2578 2.625 6.99069 2.625C5.82803 2.625 4.68479 2.95723 3.59268 3.61238C2.47897 4.28039 1.46998 5.25629 0.593614 6.51273C0.49468 6.65473 0.440193 6.82294 0.437077 6.99597C0.433961 7.16901 0.482356 7.33906 0.576114 7.48453C1.29826 8.61465 2.22768 9.56649 3.26346 10.2367C4.42967 10.9922 5.68475 11.375 6.99069 11.375C8.26791 11.375 9.5558 10.9804 10.7149 10.2342C11.7665 9.55691 12.7033 8.60289 13.4241 7.47469C13.5147 7.3326 13.5625 7.16753 13.562 6.99905C13.5615 6.83058 13.5127 6.66578 13.4214 6.52422ZM6.99998 9.625C6.48081 9.625 5.97329 9.47105 5.54161 9.18261C5.10993 8.89417 4.77348 8.4842 4.5748 8.00454C4.37612 7.52489 4.32413 6.99709 4.42542 6.48789C4.52671 5.97869 4.77671 5.51096 5.14383 5.14385C5.51094 4.77673 5.97867 4.52673 6.48787 4.42544C6.99707 4.32415 7.52487 4.37614 8.00453 4.57482C8.48418 4.7735 8.89415 5.10995 9.18259 5.54163C9.47103 5.97331 9.62498 6.48082 9.62498 7C9.62419 7.69595 9.34737 8.36317 8.85526 8.85528C8.36315 9.34739 7.69593 9.62421 6.99998 9.625Z" fill="#666666"/>
</svg>
