<svg width="41" height="41" viewBox="0 0 41 41" fill="none" xmlns="http://www.w3.org/2000/svg">
<g clip-path="url(#clip0)">
<path fill-rule="evenodd" clip-rule="evenodd" d="M30.9744 36.7552V11.0608L38.228 4.76156V29.9392L30.9744 36.7552ZM2.772 11.684H28.7008V37.588H2.772V11.684ZM18.7728 9.41196L25.6808 3.41196H36.328L29.4192 9.41196H18.7728ZM40.5 1.13916H10.7432L0.5 9.41196V39.8608L30.9744 39.86L40.5 30.9648V1.13916ZM21.2616 13.6248H10.212V15.8968H21.2616V13.6248ZM7.0632 24.3704H16.276V33.584H7.0632V24.3704ZM18.2816 22.3656H5.0576V35.5896H18.2808V22.3656H18.2816ZM13.5968 27.4304L11.6696 25.284L9.7424 27.4304H10.4392V30.6104H12.9V27.4304H13.5968ZM15.3592 31.2528H7.98V32.6512H15.3592V31.2528ZM22.2272 3.41196L15.3184 9.41196H4.1136L11.5808 3.41196H22.2272Z" fill="white"/>
</g>
<defs>
<clipPath id="clip0">
<rect width="40" height="40" fill="white" transform="translate(0.5 0.5)"/>
</clipPath>
</defs>
</svg>
