<svg width="72" height="62" viewBox="0 0 72 62" fill="none" xmlns="http://www.w3.org/2000/svg">
<path d="M36 0L0 13.6364V61.208H6V17.7797L36 6.41602L66 17.7797V61.208H72V13.6364L36 0Z" fill="white"/>
<path d="M25 29.208C25 28.6557 25.4477 28.208 26 28.208H34C34.5523 28.208 35 28.6557 35 29.208V32.208C35 32.7603 34.5523 33.208 34 33.208H26C25.4477 33.208 25 32.7603 25 32.208V29.208Z" fill="white"/>
<path d="M12 38.208C12 37.6557 12.4477 37.208 13 37.208H21C21.5523 37.208 22 37.6557 22 38.208V41.208C22 41.7603 21.5523 42.208 21 42.208H13C12.4477 42.208 12 41.7603 12 41.208V38.208Z" fill="white"/>
<path d="M26 37.208C25.4477 37.208 25 37.6557 25 38.208V41.208C25 41.7603 25.4477 42.208 26 42.208H34C34.5523 42.208 35 41.7603 35 41.208V38.208C35 37.6557 34.5523 37.208 34 37.208H26Z" fill="white"/>
<path d="M39 37.208C38.4477 37.208 38 37.6557 38 38.208V41.208C38 41.7603 38.4477 42.208 39 42.208H47C47.5523 42.208 48 41.7603 48 41.208V38.208C48 37.6557 47.5523 37.208 47 37.208H39Z" fill="white"/>
<path d="M38 29.208C38 28.6557 38.4477 28.208 39 28.208H47C47.5523 28.208 48 28.6557 48 29.208V32.208C48 32.7603 47.5523 33.208 47 33.208H39C38.4477 33.208 38 32.7603 38 32.208V29.208Z" fill="white"/>
<path d="M13 46.208C12.4477 46.208 12 46.6557 12 47.208V50.208C12 50.7603 12.4477 51.208 13 51.208H21C21.5523 51.208 22 50.7603 22 50.208V47.208C22 46.6557 21.5523 46.208 21 46.208H13Z" fill="white"/>
<path d="M25 47.208C25 46.6557 25.4477 46.208 26 46.208H34C34.5523 46.208 35 46.6557 35 47.208V50.208C35 50.7603 34.5523 51.208 34 51.208H26C25.4477 51.208 25 50.7603 25 50.208V47.208Z" fill="white"/>
<path d="M39 46.208C38.4477 46.208 38 46.6557 38 47.208V50.208C38 50.7603 38.4477 51.208 39 51.208H47C47.5523 51.208 48 50.7603 48 50.208V47.208C48 46.6557 47.5523 46.208 47 46.208H39Z" fill="white"/>
<path d="M51 47.208C51 46.6557 51.4477 46.208 52 46.208H60C60.5523 46.208 61 46.6557 61 47.208V50.208C61 50.7603 60.5523 51.208 60 51.208H52C51.4477 51.208 51 50.7603 51 50.208V47.208Z" fill="white"/>
<path d="M13 55.208C12.4477 55.208 12 55.6557 12 56.208V59.208C12 59.7603 12.4477 60.208 13 60.208H21C21.5523 60.208 22 59.7603 22 59.208V56.208C22 55.6557 21.5523 55.208 21 55.208H13Z" fill="white"/>
<path d="M25 56.208C25 55.6557 25.4477 55.208 26 55.208H34C34.5523 55.208 35 55.6557 35 56.208V59.208C35 59.7603 34.5523 60.208 34 60.208H26C25.4477 60.208 25 59.7603 25 59.208V56.208Z" fill="white"/>
<path d="M39 55.208C38.4477 55.208 38 55.6557 38 56.208V59.208C38 59.7603 38.4477 60.208 39 60.208H47C47.5523 60.208 48 59.7603 48 59.208V56.208C48 55.6557 47.5523 55.208 47 55.208H39Z" fill="white"/>
<path d="M51 56.208C51 55.6557 51.4477 55.208 52 55.208H60C60.5523 55.208 61 55.6557 61 56.208V59.208C61 59.7603 60.5523 60.208 60 60.208H52C51.4477 60.208 51 59.7603 51 59.208V56.208Z" fill="white"/>
</svg>
