<svg width="40" height="41" viewBox="0 0 40 41" fill="none" xmlns="http://www.w3.org/2000/svg">
<g clip-path="url(#clip0)">
<path fill-rule="evenodd" clip-rule="evenodd" d="M19.004 9.6704V15.4256H12.9472V9.6704H19.004ZM20.996 9.6704H27.0528V15.4256H20.996V9.6704ZM29.0448 7.6784H10.9552V17.4176H29.0448V7.6784ZM25.1368 19.896H14.8632V21.888H25.1368V19.896ZM12.5128 22.348C13.3176 22.348 13.9688 21.6968 13.9688 20.892C13.9688 20.0888 13.3176 19.4368 12.5128 19.4368C11.7096 19.4368 11.0576 20.0888 11.0576 20.892C11.0576 21.696 11.7088 22.348 12.5128 22.348ZM27.4872 19.436C26.6824 19.436 26.0312 20.088 26.0312 20.8912C26.0312 21.696 26.6824 22.3472 27.4872 22.3472C28.2904 22.3472 28.9424 21.696 28.9424 20.8912C28.9424 20.088 28.2904 19.436 27.4872 19.436ZM13.2384 34.1912H26.7624L27.2632 35.9504H12.7368L13.2384 34.1912ZM14.3024 30.4496H25.6968L26.1944 32.1992H13.8048L14.3024 30.4496ZM9.43436 26.0936H30.5656V26.7224L29.0952 28.192H10.9048L9.43436 26.7224V26.0936ZM30.0304 30.4496L32.8232 27.6568V5.6448L27.6456 0.5H12.3544L7.17676 5.6448V27.6568L9.96956 30.4496H11.9584L9.09676 40.5H11.4416L12.1696 37.9424H27.8304L28.5584 40.5H30.9024L28.0416 30.4496H30.0304ZM13.2768 2.7576H26.7232L30.5648 6.5752V24.1016H9.43436V6.5744L13.2768 2.7576ZM16.676 6.1784H23.3232V4.1864H16.676V6.1784Z" fill="white"/>
</g>
<defs>
<clipPath id="clip0">
<rect width="40" height="40" fill="white" transform="translate(0 0.5)"/>
</clipPath>
</defs>
</svg>
