<svg width="64" height="64" viewBox="0 0 64 64" fill="none" xmlns="http://www.w3.org/2000/svg">
<path d="M10.2137 8.37183C4.50459 13.5857 0.87645 20.6902 0 28.3728L6.67601 29.1345C7.36842 23.0652 10.2347 17.4519 14.745 13.3328C19.2553 9.21363 25.1045 6.86695 31.2112 6.72535C37.3178 6.58472 43.269 8.65992 47.9643 12.5671C52.6595 16.4744 55.7814 21.949 56.7528 27.9802C57.7241 34.0105 56.4791 40.1882 53.248 45.3728C50.0169 50.5564 45.0183 54.3943 39.1762 56.1785C33.3342 57.9627 27.0439 57.5701 21.4683 55.0759C16.0249 52.6404 11.6222 48.3611 9.03159 42.9998H13.2937L3.29375 34.9998L0.293747 46.9998L2.78358 45.5056C6.03372 52.4871 11.693 58.0632 18.7239 61.2087C25.7814 64.367 33.7436 64.863 41.1384 62.6052C48.5332 60.3474 54.8604 55.488 58.9503 48.9265C63.0402 42.365 64.6161 34.5447 63.3866 26.9109C62.1571 19.2781 58.2054 12.3474 52.2622 7.40211C46.319 2.4568 38.7861 -0.170158 31.0563 0.00855325C23.3266 0.186288 15.9227 3.15699 10.2137 8.37183Z" fill="white"/>
<path d="M39.1275 24.7197H41.4155L34.8235 40.7677H32.5515L39.1275 24.7197Z" fill="white"/>
<path d="M12.2799 37.9997H21.9919V35.3437H18.0879L20.0879 33.4717C20.7065 32.8851 21.1545 32.3144 21.4319 31.7597C21.7199 31.1944 21.8639 30.5811 21.8639 29.9197C21.8639 29.3011 21.7465 28.7304 21.5119 28.2077C21.2772 27.6744 20.9519 27.2157 20.5359 26.8317C20.1199 26.4477 19.6239 26.1491 19.0479 25.9357C18.4825 25.7224 17.8639 25.6157 17.1919 25.6157C16.5092 25.6157 15.8799 25.7277 15.3039 25.9517C14.7385 26.1757 14.2479 26.4957 13.8319 26.9117C13.4159 27.3277 13.0905 27.8237 12.8559 28.3997C12.6319 28.9757 12.5199 29.6157 12.5199 30.3197H15.9439C15.9119 30.0957 15.8959 29.9251 15.8959 29.8077C15.8959 29.3917 16.0132 29.0451 16.2479 28.7677C16.4932 28.4904 16.8292 28.3517 17.2559 28.3517C17.4799 28.3517 17.6719 28.3944 17.8319 28.4797C18.0025 28.5544 18.1465 28.6611 18.2639 28.7997C18.3812 28.9277 18.4665 29.0771 18.5199 29.2477C18.5839 29.4184 18.6159 29.5944 18.6159 29.7757C18.6159 29.9464 18.5892 30.1544 18.5359 30.3997C18.4825 30.6451 18.3439 30.9651 18.1199 31.3597C17.9065 31.7544 17.5759 32.2397 17.1279 32.8157C16.6799 33.3811 16.0612 34.0744 15.2719 34.8957L12.2799 37.9997Z" fill="white"/>
<path fill-rule="evenodd" clip-rule="evenodd" d="M32.7485 33.1197H31.2925V25.9357H27.1645L22.5565 33.5037V35.5197H28.3805V37.9997H31.2925V35.5197H32.7485V33.1197ZM28.3805 28.3677V33.1197H25.6125L28.3805 28.3677Z" fill="white"/>
<path d="M42.1606 28.5917H47.2006L41.6966 37.9997H45.1526L52.0646 25.9357H42.1606V28.5917Z" fill="white"/>
</svg>
