<svg width="66" height="65" viewBox="0 0 66 65" fill="none" xmlns="http://www.w3.org/2000/svg">
<path d="M8 4C5.79086 4 4 5.79086 4 8V57C4 59.2091 5.79086 61 8 61H44C46.2091 61 48 59.2091 48 57V51.9063C49.2649 50.5906 50.5918 49.1524 51.8463 47.7928L51.847 47.792L52 47.6262V57C52 61.4183 48.4183 65 44 65H8C3.58172 65 0 61.4183 0 57V8C0 3.58172 3.58172 0 8 0H32.5147C34.6365 0 36.6713 0.842855 38.1716 2.34315L49.6569 13.8284C51.1572 15.3287 52 17.3636 52 19.4853V21.6834C50.6534 23.5591 49.3078 25.7056 48 27.9969V19.4853C48 19.3222 47.99 19.1602 47.9705 19H33V4.02953C32.8398 4.00996 32.6778 4 32.5147 4H8Z" fill="white"/>
<path d="M36.8923 53C37.2711 51.8186 37.7406 50.4695 38.2869 49L10 49C8.89543 49 8 49.8954 8 51C8 52.1046 8.89543 53 10 53L36.8923 53Z" fill="white"/>
<path d="M39.8466 45C40.3721 43.7084 40.9378 42.3674 41.5371 41L10 41C8.89543 41 8 41.8954 8 43C8 44.1046 8.89543 45 10 45L39.8466 45Z" fill="white"/>
<path d="M22 27.5C22 26.3954 22.8954 25.5 24 25.5H42C43.1046 25.5 44 26.3954 44 27.5C44 28.6046 43.1046 29.5 42 29.5H24C22.8954 29.5 22 28.6046 22 27.5Z" fill="white"/>
<path d="M8 35C8 33.8954 8.89543 33 10 33L42 33C43.1046 33 44 33.8954 44 35C44 36.1046 43.1046 37 42 37L10 37C8.89543 37 8 36.1046 8 35Z" fill="white"/>
<path d="M15.3927 10C15.947 10 16.3964 10.4493 16.3964 11.0036V12.3082C17.9673 12.4481 19.2909 12.8169 20.3673 13.4147L18.7527 16.1616C17.8218 15.5385 16.9055 15.2269 16.0036 15.2269C15.4509 15.2269 15 15.3414 14.6509 15.5703C14.3018 15.7865 14.1273 16.0345 14.1273 16.3143C14.1273 16.5686 14.2655 16.8102 14.5418 17.0392C14.8182 17.2681 15.1818 17.4525 15.6327 17.5924L16.92 17.9739C18.36 18.4063 19.4 18.9404 20.04 19.5763C20.68 20.1995 21 21.0134 21 22.0181C21 22.6285 20.92 23.169 20.76 23.6396C20.6 24.1101 20.3382 24.5298 19.9745 24.8986C19.6109 25.2674 19.1309 25.5917 18.5345 25.8715C17.9527 26.1513 17.24 26.4056 16.3964 26.6345V27.9964C16.3964 28.5507 15.947 29 15.3927 29C14.8384 29 14.3891 28.5507 14.3891 27.9964V26.7299C13.9382 26.7299 13.4582 26.6854 12.9491 26.5964C12.44 26.4946 11.9382 26.3675 11.4436 26.2149C10.9491 26.0495 10.4836 25.8651 10.0473 25.6616C9.62545 25.4454 9.27636 25.2229 9 24.994L10.7673 22.1135C12.1345 23.169 13.4655 23.6968 14.76 23.6968C15.2982 23.6968 15.7636 23.5696 16.1564 23.3153C16.5636 23.0609 16.7673 22.7303 16.7673 22.3233C16.7673 21.7637 16.2945 21.3504 15.3491 21.0833L14.1055 20.74C13.3636 20.5365 12.7309 20.3139 12.2073 20.0723C11.6836 19.8307 11.2545 19.5509 10.92 19.2329C10.5855 18.915 10.3382 18.5589 10.1782 18.1647C10.0182 17.7577 9.93818 17.2935 9.93818 16.7721C9.93818 16.2252 10.0255 15.6975 10.2 15.1888C10.3891 14.6801 10.6655 14.2286 11.0291 13.8343C11.4073 13.4274 11.8727 13.0904 12.4255 12.8233C12.9782 12.5435 13.6327 12.3718 14.3891 12.3082V11.0036C14.3891 10.4493 14.8384 10 15.3927 10Z" fill="white"/>
<path d="M51.7441 42.8398C48.6742 47.3263 40.1072 57.3484 38.8216 56.5757C37.5359 55.803 42.366 43.5349 44.8873 38.7187L45.0999 38.312C48.0055 32.7513 59.2219 11.2856 64.2322 14.2969C66.4199 15.6117 65.0418 20.1613 62.4996 25.301L63.7821 26.0718C64.7289 26.6408 65.0351 27.8696 64.466 28.8163L56.2238 42.53C55.9393 43.0034 55.3249 43.1565 54.8516 42.872C54.3782 42.5875 54.2251 41.9731 54.5096 41.4997L62.7518 27.786L61.5848 27.0846C58.3193 33.2458 53.8243 39.8043 52.0034 42.4613L51.7441 42.8398Z" fill="white"/>
</svg>
