<svg width="40" height="41" viewBox="0 0 40 41" fill="none" xmlns="http://www.w3.org/2000/svg">
<path fill-rule="evenodd" clip-rule="evenodd" d="M18.4688 14.1471V16.3967H22.0992V14.1471H18.4688ZM19.8336 17.2463H16.2024V19.4951H19.8336V17.2463ZM20.7344 17.2463V19.4951H24.3656V17.2463H20.7344ZM23 16.3967H26.6312V14.1471H23V16.3967ZM28.8968 17.2463H25.2656V19.4951H28.8968V17.2463ZM27.532 16.3975H31.1632V14.1479H27.532V16.3975ZM29.7976 17.2463V19.4951H33.428V17.2463H29.7976ZM31.9824 23.3503H28.8768V24.9575H31.9824V23.3503ZM27.8464 24.9575V23.3503H24.7408V24.9575H27.8464ZM33.528 28.6999C29.7568 27.2679 27.8176 26.5303 22.588 28.3855C18.8216 29.7215 17.3832 29.7231 13.6168 28.3855C8.3848 26.5311 6.4488 27.2655 2.6768 28.6991C2.0848 28.9239 1.4416 29.1687 0.6752 29.4407L1.4064 31.5127C2.1248 31.2591 2.816 30.9951 3.4504 30.7543C6.7272 29.5095 8.4088 28.8711 12.8864 30.4583C17.1976 31.9887 19.0984 31.9567 23.3192 30.4583C27.7944 28.8711 29.4784 29.5111 32.7552 30.7551C33.3904 30.9959 34.0808 31.2591 34.7992 31.5135L35.5304 29.4415C34.7624 29.1687 34.12 28.9239 33.528 28.6999ZM9.032 18.0055V9.40552H6.8304V18.0055H4.4072V20.3375H0L2.3608 27.6631C3.1112 27.3783 3.7928 27.1327 4.4296 26.9279L3.0152 22.5383H35.168L31.4304 26.8207C32.116 27.0303 32.8504 27.2903 33.6656 27.5959L40 20.3383H11.4544V18.0063H9.032V18.0055Z" fill="white"/>
</svg>
