<svg width="41" height="41" viewBox="0 0 41 41" fill="none" xmlns="http://www.w3.org/2000/svg">
<g clip-path="url(#clip0)">
<path fill-rule="evenodd" clip-rule="evenodd" d="M23.7224 6.77148L17.4152 8.32107L16.2928 6.04747L19.532 5.25148L23.7224 6.77148ZM21.0552 23.7627L29.496 13.3467L36.6792 11.5819C37.9472 11.2675 38.884 10.7507 39.5024 10.1547C40.3616 9.32587 40.6536 8.33307 40.4248 7.40907C40.26 6.74187 39.7992 6.08188 39.088 5.60828C38.1208 4.96588 37.2176 5.05628 36.212 4.64028C35.3576 4.28508 34.7024 4.01387 32.9208 4.51707L27.6248 5.81307L19.6552 2.92188L13.0632 4.54188L15.196 8.86427L10.9248 9.91387L6.3208 6.02827L0.5 7.45707L7.508 18.7475L16.3824 16.5675L14.5712 23.7339L21.0552 23.7627ZM18.8384 15.9651L25.9144 14.2267L19.9952 21.5307L17.4344 21.5195L18.8384 15.9651ZM30.1824 28.4227H34.4296V35.8411H23.6984V28.4227H27.9464V30.8203H30.1832V28.4227H30.1824ZM36.6656 26.1867H21.4624V38.0779H36.6656V26.1867ZM13.6968 28.4227H17.9448V35.8411H7.2136V28.4227H11.4616V30.8203H13.6976V28.4227H13.6968ZM20.1808 38.0771V26.1867H4.9768V38.0779H20.1808V38.0771ZM10.3536 12.3523L33.4848 6.67467C34.3056 6.49467 34.5656 6.37227 35.3568 6.70267C35.8232 6.89627 36.2928 7.07387 36.7952 7.14267C37.5168 7.18907 38.8416 7.69467 37.9568 8.54827C37.6008 8.89148 37.0048 9.20267 36.1464 9.41627L8.552 16.1939L4.0184 8.88987L5.7504 8.46508L10.3536 12.3523Z" fill="white"/>
</g>
<defs>
<clipPath id="clip0">
<rect width="40" height="40" fill="white" transform="translate(0.5 0.5)"/>
</clipPath>
</defs>
</svg>
