<svg width="41" height="41" viewBox="0 0 41 41" fill="none" xmlns="http://www.w3.org/2000/svg">
<g clip-path="url(#clip0)">
<path fill-rule="evenodd" clip-rule="evenodd" d="M1.3456 23.0243H27.2464V11.4043H1.3456V23.0243ZM17.956 25.9907C18.396 25.9907 18.7528 26.3483 18.7528 26.7883C18.7528 27.2307 18.3984 27.5843 17.956 27.5843C17.516 27.5843 17.1592 27.2275 17.1592 26.7883C17.1584 26.3443 17.512 25.9907 17.956 25.9907ZM23.2048 26.7875C23.2048 26.3475 23.5616 25.9899 24.0016 25.9899C24.4424 25.9899 24.7984 26.3475 24.7984 26.7875C24.7984 27.2275 24.4416 27.5835 24.0016 27.5835C23.5624 27.5843 23.2048 27.2267 23.2048 26.7875ZM34.296 26.7875C34.296 26.3443 34.6496 25.9899 35.0928 25.9899C35.5328 25.9899 35.8896 26.3475 35.8896 26.7875C35.8896 27.2299 35.5352 27.5835 35.0928 27.5835C34.6536 27.5843 34.296 27.2275 34.296 26.7875ZM33.408 19.8507H30.5624V18.3787H32.824L33.408 19.8507ZM30.5624 25.1763V22.1315H38.22V25.1811H37.3984C36.8728 24.4283 36.0152 23.9787 35.0944 23.9787C34.168 23.9787 33.32 24.4283 32.7952 25.1763H30.5624ZM17.956 23.9787C16.4072 23.9787 15.1464 25.2387 15.1464 26.7883C15.1464 28.3387 16.4048 29.5971 17.956 29.5971C19.2488 29.5971 20.38 28.7035 20.684 27.4579H21.2736C21.58 28.7107 22.708 29.5971 24.0016 29.5971C25.296 29.5971 26.4248 28.7099 26.7304 27.4563H32.364C32.6704 28.7099 33.7984 29.5971 35.0928 29.5971C36.388 29.5971 37.5184 28.7011 37.8224 27.4531L40.5 27.4523V19.8515H35.852L34.3632 16.0995H30.5624V13.6827H28.2824V25.1763H26.304C25.7776 24.4259 24.9224 23.9787 24.0024 23.9787C23.084 23.9787 22.2248 24.4267 21.7008 25.1771H20.2584C19.7328 24.4267 18.8744 23.9787 17.956 23.9787ZM9.5024 25.9907C9.9424 25.9907 10.2992 26.3483 10.2992 26.7883C10.2992 27.2283 9.9424 27.5843 9.5024 27.5843C9.0624 27.5843 8.7048 27.2283 8.7048 26.7883C8.7048 26.3443 9.0584 25.9907 9.5024 25.9907ZM4.1064 26.7875C4.1064 27.2299 3.7512 27.5835 3.3096 27.5835C2.8672 27.5835 2.5128 27.2299 2.5128 26.7875C2.5128 26.3475 2.8696 25.9899 3.3096 25.9899C3.7496 25.9899 4.1064 26.3475 4.1064 26.7875ZM12.3112 26.7875C12.3112 25.2363 11.0544 23.9779 9.5024 23.9779C8.5728 23.9779 7.7288 24.4275 7.2032 25.1763H5.6112C5.0872 24.4259 4.2264 23.9779 3.3088 23.9779C1.7576 23.9787 0.5 25.2363 0.5 26.7875C0.5 28.3347 1.7616 29.5963 3.3096 29.5963C4.6032 29.5963 5.7328 28.7027 6.0384 27.4571H6.7736C7.08 28.7099 8.208 29.5963 9.5024 29.5963C11.0528 29.5963 12.3112 28.3387 12.3112 26.7875ZM3.6256 13.6835H24.9664V20.7443H3.6256V13.6835Z" fill="white"/>
</g>
<defs>
<clipPath id="clip0">
<rect width="40" height="40" fill="white" transform="translate(0.5 0.5)"/>
</clipPath>
</defs>
</svg>
