<svg width="79" height="72" viewBox="0 0 79 72" fill="none" xmlns="http://www.w3.org/2000/svg">
<path fill-rule="evenodd" clip-rule="evenodd" d="M34.0634 0.233288C34.6534 -0.0801887 35.3606 -0.077259 35.9487 0.239147L68.4486 17.7391C69.4211 18.2626 69.785 19.4755 69.2613 20.4481C68.7377 21.4208 67.5248 21.7841 66.5522 21.2606L64.0837 19.9315V31.4999C64.0837 32.6044 63.1883 33.4999 62.0837 33.4999C60.9792 33.4999 60.0838 32.6044 60.0838 31.4999V26.0419H9.50041V56.9999C9.50041 58.1044 8.60503 58.9999 7.50041 58.9999C6.3958 58.9999 5.50041 58.1044 5.50041 56.9999V19.9081L2.93743 21.2665C1.9616 21.7841 0.751025 21.413 0.233447 20.4364C-0.284009 19.4608 0.0875727 18.2509 1.0634 17.7333L34.0634 0.233288ZM9.50041 19.0419V22.0419H60.0838V19.0419H9.50041Z" fill="white"/>
<path d="M13.0004 37.4999C13.0004 36.3954 13.8958 35.4999 15.0004 35.4999H22.0004C23.105 35.4999 24.0004 36.3954 24.0004 37.4999V44.4999C24.0004 45.6044 23.105 46.4999 22.0004 46.4999H15.0004C13.8958 46.4999 13.0004 45.6044 13.0004 44.4999V37.4999Z" fill="white"/>
<path d="M17.0004 48.4999C15.8958 48.4999 15.0004 49.3954 15.0004 50.4999V57.4999C15.0004 58.6044 15.8958 59.4999 17.0004 59.4999H24.0004C25.105 59.4999 26.0004 58.6044 26.0004 57.4999V50.4999C26.0004 49.3954 25.105 48.4999 24.0004 48.4999H17.0004Z" fill="white"/>
<path d="M56.0004 37.4999H31.0004V63.4999H34.8032C35.8405 61.7069 37.7796 60.4999 40.0004 60.4999C42.2212 60.4999 44.1603 61.7069 45.1977 63.4999H60.0004V41.4999C60.0004 39.2909 58.2095 37.4999 56.0004 37.4999Z" fill="white"/>
<path d="M63.0004 44.4999H72.0004L79.0004 53.9999V63.4999H75.1977C74.1603 61.7069 72.2212 60.4999 70.0004 60.4999C67.7796 60.4999 65.8406 61.7069 64.8031 63.4999H63.0004V44.4999Z" fill="white"/>
<path d="M45.0004 66.4999C45.0004 69.2616 42.7619 71.4999 40.0004 71.4999C37.2389 71.4999 35.0004 69.2616 35.0004 66.4999C35.0004 63.7382 37.2389 61.4999 40.0004 61.4999C42.7619 61.4999 45.0004 63.7382 45.0004 66.4999Z" fill="white"/>
<path d="M70.0004 71.4999C72.7618 71.4999 75.0004 69.2616 75.0004 66.4999C75.0004 63.7382 72.7618 61.4999 70.0004 61.4999C67.239 61.4999 65.0004 63.7382 65.0004 66.4999C65.0004 69.2616 67.239 71.4999 70.0004 71.4999Z" fill="white"/>
</svg>
