<svg width="25" height="24" viewBox="0 0 25 24" fill="none" xmlns="http://www.w3.org/2000/svg">
<path d="M20.375 3.75H4.625C3.92904 3.75074 3.26179 4.02755 2.76967 4.51967C2.27755 5.01179 2.00074 5.67904 2 6.375V17.625C2.00074 18.321 2.27755 18.9882 2.76967 19.4803C3.26179 19.9725 3.92904 20.2493 4.625 20.25H20.375C21.071 20.2493 21.7382 19.9725 22.2303 19.4803C22.7225 18.9882 22.9993 18.321 23 17.625V6.375C22.9993 5.67904 22.7225 5.01179 22.2303 4.51967C21.7382 4.02755 21.071 3.75074 20.375 3.75ZM19.7103 8.09203L12.9603 13.342C12.8287 13.4444 12.6667 13.4999 12.5 13.4999C12.3333 13.4999 12.1713 13.4444 12.0397 13.342L5.28969 8.09203C5.21038 8.03214 5.14377 7.95709 5.09372 7.87123C5.04367 7.78537 5.01118 7.69042 4.99815 7.5919C4.98511 7.49338 4.99179 7.39325 5.01778 7.29733C5.04378 7.20142 5.08858 7.11162 5.14958 7.03316C5.21058 6.95471 5.28656 6.88916 5.37312 6.84032C5.45967 6.79149 5.55506 6.76034 5.65376 6.74869C5.75245 6.73704 5.85248 6.74513 5.94802 6.77247C6.04357 6.79981 6.13272 6.84587 6.21031 6.90797L12.5 11.7998L18.7897 6.90797C18.947 6.7892 19.1447 6.73711 19.34 6.76296C19.5354 6.78881 19.7128 6.89053 19.8338 7.04612C19.9547 7.20171 20.0096 7.39866 19.9865 7.59439C19.9634 7.79011 19.8642 7.96888 19.7103 8.09203Z" fill="white"/>
</svg>
