<svg width="150" height="36" viewBox="0 0 150 36" fill="none" xmlns="http://www.w3.org/2000/svg">
<path fill-rule="evenodd" clip-rule="evenodd" d="M31.9618 19.8094C33.2782 21.3067 35.3362 24.3502 35.343 24.3358C36.9981 20.8346 36.8987 17.0914 36.2527 13.7355C35.7181 10.9579 33.8006 8.00883 31.82 6.04073C31.82 6.04073 29.7351 3.73843 26.3568 2.01601C24.0874 0.858967 21.2954 -0.00186263 18.109 3.02669e-06C17.7794 8.78291e-05 17.4456 0.00958604 17.1077 0.0288362C14.8432 0.157906 12.3496 0.682916 9.85794 1.98531C6.16794 3.91431 2.65771 7.86322 1.4016 10.943C0.475849 13.2125 0.000501081 15.6695 5.39049e-07 17.71C-8.28846e-05 18.0015 0.00951662 18.2845 0.0288709 18.5573C0.278475 22.0754 1.76309 24.4581 1.82057 24.4777C1.88747 24.5003 4.50948 19.7446 8.20031 15.9418C9.56904 14.5319 10.9399 13.1927 12.3048 12.0994C14.7378 10.1503 16.9492 8.87288 16.964 8.87288C16.9841 8.87288 15.1706 7.57439 12.8355 6.39623C9.914 4.92219 6.33294 3.55975 7.35021 3.85631C9.18094 4.39005 11.0137 4.92779 12.8991 5.57449C13.6724 5.90352 14.6239 6.25715 15.4368 6.61332C16.4819 7.07142 17.3579 7.50001 18.3521 7.92318L18.7493 7.78504C20.3727 7.03555 21.8739 6.28573 23.5379 5.66243C25.202 5.03896 27.1788 4.48156 28.9043 4.00471C27.1179 4.90057 25.2029 5.77208 23.3755 6.64682C22.055 7.33117 20.9153 7.94871 19.9418 8.73779C21.3939 9.8945 23.6246 11.118 24.9338 12.3378C28.0883 14.834 29.8487 17.1508 31.9618 19.8094Z" fill="white"/>
<path fill-rule="evenodd" clip-rule="evenodd" d="M18.5336 18.4162C16.0287 18.4162 13.9989 20.4046 13.9989 22.8567C13.9989 25.3086 16.0287 27.2969 18.5336 27.2969C21.0385 27.2969 23.0684 25.3086 23.0684 22.8567C23.0684 20.4046 21.0385 18.4162 18.5336 18.4162ZM5.63305 30.6066C5.47971 30.091 5.41489 29.5752 5.43841 29.0596C6.40813 25.8622 7.64389 22.2349 9.88257 19.0433C11.8933 16.1759 14.7725 12.8747 17.9128 10.707C18.0672 10.6005 18.2472 10.5985 18.4026 10.4973C18.5415 10.5864 18.7296 10.6255 18.8662 10.7161C21.6475 12.5633 23.9237 14.7917 25.8891 17.5198C28.1888 20.7119 30.556 24.73 31.5139 28.6104C31.5706 29.3073 31.5056 29.9413 31.3191 30.6066C27.1372 34.5054 22.6552 35.7879 18.1735 35.7879C14.0935 35.7879 8.71513 34.1978 5.63305 30.6066Z" fill="white"/>
<path fill-rule="evenodd" clip-rule="evenodd" d="M144.562 25.3414L150 6.23598H143.715L139.86 19.7782C139.247 20.1266 138.609 20.4054 137.944 20.6087C137.279 20.8119 136.728 20.9166 136.281 20.9166C135.563 20.9166 135.035 20.8119 134.688 20.6087C134.348 20.4054 134.133 20.1036 134.055 19.7086C133.975 19.2789 133.997 18.7503 134.119 18.1289C134.242 17.502 134.445 16.7004 134.726 15.7133L137.424 6.23598H131.102L127.561 18.6749C126.877 21.0793 126.923 22.8793 127.704 24.0752C128.486 25.2718 129.873 25.8699 131.872 25.8699C133.129 25.8699 134.279 25.6433 135.32 25.1965C136.355 24.7491 137.541 24.093 138.877 23.2334L138.277 25.3414H144.562ZM113.083 25.8699C111.593 25.8699 110.231 25.7187 109.001 25.4109C107.764 25.1033 106.773 24.7491 106.026 24.3369L107.459 19.3019H107.98C108.22 19.5168 108.489 19.755 108.801 20.0165C109.107 20.2777 109.563 20.5507 110.169 20.8349C110.677 21.0966 111.276 21.3173 111.958 21.5088C112.64 21.6945 113.417 21.7877 114.275 21.7877C115.164 21.7877 115.98 21.6597 116.734 21.3984C117.483 21.1373 117.94 20.719 118.1 20.1558C118.227 19.7086 118.169 19.3777 117.92 19.1511C117.672 18.9246 117.134 18.7038 116.29 18.5007C115.843 18.3905 115.271 18.2685 114.579 18.135C113.886 18.0069 113.285 17.8561 112.768 17.6877C111.319 17.2232 110.332 16.5321 109.795 15.6205C109.259 14.7029 109.201 13.5067 109.624 12.0201C109.865 11.1721 110.303 10.3653 110.929 9.61019C111.553 8.86087 112.352 8.18763 113.324 7.59478C114.291 7.02032 115.416 6.55577 116.69 6.21877C117.964 5.87608 119.343 5.70775 120.827 5.70775C122.243 5.70767 123.505 5.8414 124.613 6.10827C125.72 6.37565 126.628 6.69485 127.338 7.06645L125.963 11.8982H125.461C125.29 11.7413 125.008 11.5264 124.618 11.2595C124.228 10.992 123.839 10.7655 123.451 10.5741C122.989 10.3475 122.454 10.156 121.84 10.011C121.231 9.86561 120.585 9.79022 119.904 9.79022C118.996 9.79022 118.182 9.93524 117.473 10.2314C116.757 10.5275 116.333 10.9168 116.193 11.4101C116.07 11.8401 116.128 12.1768 116.369 12.4267C116.611 12.6765 117.217 12.9203 118.191 13.1582C118.694 13.286 119.279 13.4078 119.945 13.524C120.609 13.6458 121.238 13.8087 121.829 14.0121C123.151 14.4532 124.063 15.1035 124.569 15.9574C125.072 16.8166 125.122 17.9546 124.719 19.3718C124.464 20.2661 124.001 21.1197 123.327 21.9327C122.65 22.7398 121.83 23.4248 120.856 23.9825C119.82 24.5807 118.677 25.0452 117.417 25.3765C116.152 25.7071 114.707 25.8699 113.083 25.8699H113.083ZM96.9522 23.3149L96.3757 25.3414H102.63L106.329 12.3452C106.969 10.098 106.654 8.42558 105.377 7.33375C104.101 6.23598 101.724 5.69028 98.2468 5.69028C96.8369 5.69028 95.399 5.80646 93.9413 6.03873C92.4897 6.27109 91.4259 6.47428 90.7525 6.64269L89.4404 11.2537H89.9798C91.0359 10.8587 92.1036 10.5333 93.17 10.2778C94.236 10.0226 95.143 9.89487 95.8851 9.89487C97.5224 9.89487 98.697 10.098 99.4045 10.4986C100.112 10.8994 100.315 11.631 100.016 12.6821L99.9855 12.7867C98.1317 12.9028 96.3885 13.0594 94.7487 13.2628C93.1086 13.466 91.6435 13.8317 90.3537 14.3544C89.0875 14.8597 88.025 15.5566 87.1824 16.4278C86.3335 17.2986 85.7058 18.4486 85.3024 19.8654C84.8114 21.5901 84.9937 23.0188 85.855 24.151C86.7097 25.2835 88.0317 25.8527 89.8158 25.8527C90.7725 25.8527 91.5408 25.7825 92.1118 25.6491C92.6854 25.51 93.2871 25.3126 93.9255 25.051C94.5797 24.778 95.1108 24.5053 95.5306 24.2379C95.9517 23.9653 96.4256 23.6572 96.9521 23.3149H96.9522ZM97.7938 20.3588L98.9277 16.3754C97.8308 16.4797 96.9415 16.5669 96.2658 16.6367C95.582 16.7119 94.8963 16.8574 94.1978 17.072C93.5947 17.2523 93.0923 17.5307 92.6814 17.897C92.2693 18.2685 91.9772 18.7561 91.8018 19.3718C91.5474 20.2661 91.6297 20.8815 92.0427 21.2185C92.4573 21.5497 93.1574 21.7176 94.1507 21.7176C94.703 21.7176 95.3017 21.5957 95.9457 21.3577C96.5902 21.1197 97.2054 20.7888 97.7938 20.3588ZM77.7808 25.7129C75.2177 25.7129 73.4954 25.2138 72.6149 24.215C71.7282 23.2161 71.6101 21.5843 72.2547 19.3196L74.7969 10.3883H72.3868L73.5691 6.23598H75.9787L77.5327 0.77776H83.8177L82.2641 6.23598H88.3221L87.1399 10.3883H81.0821L79.1564 17.1536C78.9648 17.827 78.8056 18.4077 78.6754 18.9073C78.5454 19.4067 78.5163 19.8538 78.582 20.2486C78.6337 20.6493 78.8445 20.963 79.2015 21.1954C79.5589 21.4273 80.1451 21.5433 80.9608 21.5433C81.2977 21.5433 81.7592 21.4738 82.3429 21.3404C82.9282 21.2012 83.3428 21.0793 83.5907 20.963H84.1301L82.9333 25.1671C82.2051 25.3357 81.4378 25.4691 80.6426 25.5679C79.8482 25.6668 78.8967 25.7129 77.7808 25.7129ZM60.7803 15.574L60.4263 7.2291L55.3163 15.574H60.7803ZM42.6576 25.3414L58.9064 0.0112305H66.2337L68.062 25.3414H61.1455L60.9383 20.1672H52.5436L49.3969 25.3414H42.6576Z" fill="white"/>
<path fill-rule="evenodd" clip-rule="evenodd" d="M111.296 31.4644V30.6599C111.236 29.9819 110.851 29.6428 110.14 29.6428H108.951C108.145 29.6428 107.743 29.9819 107.743 30.6599V31.4543C107.772 32.1248 108.174 32.4602 108.951 32.4602H110.14C110.505 32.4602 110.789 32.3647 110.992 32.1736C111.194 31.9819 111.296 31.7456 111.296 31.4644ZM106.012 31.7518V30.4037C106.019 29.9882 106.115 29.6322 106.299 29.3363C106.484 29.0409 106.745 28.8165 107.081 28.6639C107.417 28.511 107.807 28.4351 108.251 28.4351H109.817C110.29 28.4351 110.641 28.5181 110.868 28.6846C111.095 28.8509 111.238 28.9904 111.296 29.1025V28.4351H113.026V33.9119C113.026 34.3566 112.94 34.7346 112.767 35.0452C112.594 35.3554 112.331 35.5921 111.977 35.7553C111.625 35.918 111.189 35.9998 110.672 35.9998H108.18C107.802 35.9998 107.458 35.9229 107.15 35.7693C106.841 35.6159 106.6 35.4007 106.427 35.1241C106.254 34.8469 106.167 34.5317 106.167 34.1782H107.908C107.908 34.3354 107.976 34.4766 108.114 34.6026C108.251 34.7287 108.43 34.7917 108.648 34.7917H110.42C110.688 34.7917 110.901 34.7199 111.059 34.5764C111.216 34.4335 111.296 34.2404 111.296 33.9971V32.9055C111.267 32.9933 111.191 33.0974 111.069 33.2174C110.947 33.337 110.782 33.4423 110.576 33.5329C110.371 33.6233 110.131 33.6687 109.857 33.6687H108.18C107.715 33.6687 107.321 33.5832 106.997 33.4128C106.673 33.2417 106.429 33.0111 106.264 32.7205C106.099 32.4298 106.015 32.1068 106.012 31.7518Z" fill="white"/>
<path fill-rule="evenodd" clip-rule="evenodd" d="M113.996 33.6687V28.4351H115.726V29.1953C115.878 29.0127 116.003 28.8748 116.103 28.7816C116.203 28.6882 116.343 28.6073 116.525 28.5382C116.705 28.4696 116.933 28.4351 117.208 28.4351H118.071C118.92 28.4351 119.505 28.6261 119.825 29.0093C120.145 29.3923 120.311 29.9105 120.323 30.5641H118.592C118.543 30.3607 118.491 30.1983 118.435 30.0766C118.38 29.955 118.283 29.8523 118.143 29.7688C118.003 29.685 117.805 29.6428 117.551 29.6428H116.915C116.569 29.6428 116.284 29.7633 116.061 30.0037C115.838 30.2447 115.726 30.5443 115.726 30.9032V33.6687H113.996Z" fill="white"/>
<path fill-rule="evenodd" clip-rule="evenodd" d="M126.424 30.6499C126.414 29.9857 126.042 29.6535 125.309 29.6535H124.13C123.725 29.6535 123.428 29.7333 123.238 29.892C123.048 30.0505 122.952 30.2996 122.952 30.6396L122.952 31.4957C122.952 31.8219 123.048 32.0612 123.238 32.2135C123.428 32.3665 123.725 32.4454 124.13 32.4505H125.309C125.693 32.4505 125.972 32.3768 126.146 32.2293C126.321 32.0818 126.414 31.8339 126.424 31.4854V30.6499ZM123.484 28.4456H125.902C126.389 28.4456 126.8 28.5344 127.134 28.7118C127.468 28.8895 127.718 29.1342 127.883 29.4455C128.049 29.7568 128.136 30.1119 128.144 30.5102L128.144 31.6125C128.136 32.0073 128.046 32.3599 127.874 32.6703C127.703 32.981 127.451 33.2246 127.118 33.4028C126.783 33.5803 126.378 33.669 125.902 33.669H123.484C123.014 33.669 122.609 33.5818 122.267 33.4076C121.927 33.2335 121.668 32.9896 121.491 32.6758C121.315 32.3616 121.225 32.0035 121.222 31.6016V30.5102C121.225 30.1183 121.311 29.7662 121.48 29.4535C121.649 29.1402 121.903 28.894 122.242 28.7145C122.582 28.5352 122.996 28.4456 123.484 28.4456Z" fill="white"/>
<path fill-rule="evenodd" clip-rule="evenodd" d="M133.169 33.669H131.511C131.043 33.669 130.641 33.5884 130.303 33.4268C129.967 33.2659 129.708 33.0209 129.529 32.6923C129.349 32.3635 129.259 31.9547 129.259 31.4647L129.259 28.4221H131V31.03C131 31.5252 131.122 31.8872 131.366 32.1165C131.611 32.346 131.985 32.4605 132.492 32.4605H133.169C133.618 32.4605 133.979 32.3352 134.251 32.0841C134.524 31.8333 134.66 31.4821 134.66 31.03V28.4221H136.39V33.669H134.66V33.0016C134.568 33.1396 134.48 33.2506 134.396 33.3353C134.313 33.4199 134.171 33.4963 133.972 33.5654C133.774 33.6345 133.506 33.669 133.169 33.669Z" fill="white"/>
<path fill-rule="evenodd" clip-rule="evenodd" d="M142.832 31.4747V30.6261C142.832 29.9711 142.428 29.6428 141.62 29.6428H140.381C140.011 29.6428 139.732 29.7292 139.544 29.9019C139.357 30.074 139.261 30.3159 139.256 30.6261L139.256 31.4747C139.265 32.132 139.641 32.4602 140.381 32.4602H141.62C142.428 32.4602 142.832 32.132 142.832 31.4747ZM140.744 28.4351H142.31C143.039 28.4351 143.597 28.6076 143.983 28.9536C144.369 29.2994 144.562 29.8044 144.562 30.4682V31.6122C144.562 32.0017 144.48 32.3523 144.315 32.6633C144.151 32.9749 143.899 33.2203 143.559 33.3996C143.22 33.5792 142.803 33.6687 142.31 33.6687H140.755C140.407 33.6687 140.098 33.5943 139.828 33.4446C139.558 33.2959 139.367 33.1299 139.256 32.9471L139.256 35.7667H137.525V28.4351H139.256V29.0584C139.452 28.8719 139.662 28.7215 139.886 28.6069C140.109 28.4922 140.395 28.4351 140.744 28.4351Z" fill="white"/>
</svg>
