<svg width="464" height="110" viewBox="0 0 464 110" fill="none" xmlns="http://www.w3.org/2000/svg">
<path fill-rule="evenodd" clip-rule="evenodd" d="M98.8685 60.5288C102.941 65.1038 109.307 74.4033 109.328 74.3593C114.447 63.6613 114.14 52.2238 112.142 41.9694C110.488 33.4825 104.557 24.4714 98.43 18.4578C98.43 18.4578 91.9806 11.423 81.5304 6.16004C74.5104 2.62462 65.8738 -0.00569136 56.0173 9.24824e-06C54.9977 0.000268367 53.9652 0.0292907 52.9198 0.0881106C45.9151 0.482489 38.2013 2.08669 30.4939 6.06623C19.0795 11.9604 8.22119 24.0265 4.33562 33.4369C1.47196 40.3715 0.00155001 47.8789 1.66746e-06 54.1138C-0.00025639 55.0047 0.0294381 55.8693 0.0893074 56.7029C0.861415 67.4527 5.45381 74.7332 5.63162 74.793C5.83858 74.862 13.9493 60.3306 25.3663 48.7109C29.6002 44.4031 33.8406 40.3111 38.0627 36.9705C45.5889 31.0149 52.4295 27.1116 52.4752 27.1116C52.5376 27.1116 46.9277 23.144 39.7045 19.544C30.6673 15.04 19.5899 10.877 22.7367 11.7832C28.3997 13.4141 34.069 15.0571 39.9011 17.0332C42.2933 18.0385 45.2367 19.1191 47.7512 20.2074C50.9841 21.6071 53.6937 22.9167 56.7692 24.2097L57.9979 23.7876C63.0197 21.4975 67.6631 19.2064 72.8106 17.3019C77.9583 15.3968 84.073 13.6937 89.4106 12.2366C83.8846 14.974 77.9609 17.6369 72.3082 20.3097C68.2234 22.4008 64.698 24.2877 61.6868 26.6988C66.1785 30.2332 73.0787 33.9717 77.1287 37.6989C86.8863 45.3261 92.3319 52.4052 98.8685 60.5288Z" fill="white"/>
<path fill-rule="evenodd" clip-rule="evenodd" d="M57.3308 56.2719C49.5823 56.2719 43.3036 62.3475 43.3036 69.8399C43.3036 77.3318 49.5823 83.4074 57.3308 83.4074C65.0792 83.4074 71.3585 77.3318 71.3585 69.8399C71.3585 62.3475 65.0792 56.2719 57.3308 56.2719ZM17.4251 93.5202C16.9508 91.9448 16.7502 90.3686 16.823 88.7934C19.8227 79.0233 23.6453 67.9401 30.5702 58.1879C36.7902 49.4263 45.6965 39.3393 55.4103 32.716C55.888 32.3905 56.4449 32.3843 56.9256 32.0752C57.3553 32.3475 57.9369 32.467 58.3596 32.7437C66.963 38.3878 74.0041 45.197 80.0839 53.5328C87.1975 63.2863 94.5199 75.5641 97.4832 87.4208C97.6587 89.55 97.4574 91.4874 96.8806 93.5202C83.9447 105.433 70.0803 109.352 56.217 109.352C43.5959 109.352 26.959 104.493 17.4251 93.5202Z" fill="white"/>
<path fill-rule="evenodd" clip-rule="evenodd" d="M447.178 77.4319L464 19.0543H444.559L432.635 60.4332C430.736 61.4979 428.765 62.3496 426.706 62.971C424.65 63.5918 422.946 63.9116 421.562 63.9116C419.342 63.9116 417.707 63.5918 416.636 62.971C415.582 62.3496 414.917 61.4274 414.677 60.2207C414.43 58.9075 414.497 57.2924 414.873 55.3936C415.255 53.4782 415.884 51.029 416.753 48.0126L425.098 19.0543H405.542L394.589 57.062C392.473 64.4088 392.614 69.9089 395.032 73.563C397.449 77.2194 401.741 79.0467 407.924 79.0467C411.813 79.0467 415.37 78.3543 418.59 76.989C421.79 75.6222 425.461 73.6174 429.593 70.9907L427.738 77.4319H447.178ZM349.803 79.0467C345.194 79.0467 340.981 78.5847 337.176 77.6443C333.349 76.7045 330.284 75.6222 327.974 74.3626L332.407 58.9779H334.019C334.759 59.6345 335.593 60.3624 336.558 61.1613C337.503 61.9596 338.914 62.7937 340.788 63.662C342.36 64.4617 344.214 65.1362 346.322 65.7213C348.432 66.2887 350.836 66.5732 353.49 66.5732C356.241 66.5732 358.764 66.1822 361.098 65.3839C363.415 64.5861 364.826 63.3078 365.322 61.587C365.715 60.2207 365.535 59.2093 364.765 58.5172C363.998 57.8251 362.334 57.1504 359.723 56.5298C358.341 56.193 356.572 55.8203 354.431 55.4125C352.287 55.0209 350.428 54.5602 348.83 54.0456C344.346 52.6262 341.295 50.5146 339.632 47.7291C337.974 44.9254 337.795 41.2703 339.102 36.728C339.85 34.1368 341.205 31.6715 343.14 29.3643C345.071 27.0748 347.542 25.0176 350.548 23.2061C353.54 21.4508 357.021 20.0314 360.96 19.0017C364.903 17.9546 369.167 17.4402 373.757 17.4402C378.139 17.44 382.044 17.8486 385.469 18.664C388.894 19.481 391.704 20.4563 393.899 21.5918L389.646 36.3556H388.091C387.565 35.876 386.692 35.2194 385.485 34.4039C384.279 33.5867 383.075 32.8946 381.877 32.3095C380.446 31.6171 378.792 31.032 376.892 30.5889C375.008 30.1448 373.008 29.9144 370.903 29.9144C368.096 29.9144 365.577 30.3575 363.383 31.2624C361.167 32.1672 359.857 33.3568 359.422 34.8641C359.044 36.1778 359.222 37.2068 359.97 37.9704C360.718 38.7335 362.59 39.4785 365.604 40.2056C367.16 40.5958 368.969 40.9682 371.03 41.3232C373.084 41.6955 375.028 42.193 376.858 42.8147C380.947 44.1623 383.769 46.1495 385.332 48.7586C386.888 51.384 387.043 54.8611 385.797 59.1915C385.009 61.9241 383.576 64.5322 381.493 67.0163C379.397 69.4826 376.86 71.5758 373.846 73.2797C370.645 75.1076 367.107 76.527 363.21 77.5391C359.297 78.5494 354.828 79.0467 349.803 79.0467H349.803ZM299.905 71.24L298.122 77.4319H317.468L328.911 37.7214C330.89 30.8548 329.916 25.7447 325.965 22.4086C322.018 19.0543 314.666 17.3868 303.91 17.3868C299.549 17.3868 295.101 17.7418 290.592 18.4516C286.101 19.1615 282.811 19.7824 280.728 20.297L276.669 34.386H278.337C281.604 33.1791 284.907 32.1848 288.206 31.4044C291.503 30.6244 294.309 30.2342 296.604 30.2342C301.669 30.2342 305.303 30.8548 307.491 32.0789C309.681 33.3034 310.307 35.5391 309.382 38.7506L309.288 39.0704C303.554 39.4251 298.162 39.9037 293.089 40.5251C288.016 41.1459 283.484 42.2635 279.494 43.8605C275.577 45.4045 272.29 47.534 269.684 50.1959C267.058 52.8568 265.116 56.3704 263.869 60.6995C262.35 65.9695 262.914 70.3351 265.578 73.7946C268.222 77.2549 272.311 78.9941 277.83 78.9941C280.79 78.9941 283.166 78.7798 284.932 78.3722C286.707 77.947 288.568 77.344 290.543 76.5446C292.567 75.7103 294.209 74.8772 295.508 74.0602C296.811 73.2271 298.276 72.2858 299.905 71.24H299.905ZM302.509 62.2073L306.016 50.0358C302.623 50.3545 299.872 50.6209 297.782 50.8341C295.667 51.0639 293.546 51.5086 291.385 52.1644C289.52 52.7153 287.965 53.566 286.694 54.6851C285.42 55.8203 284.516 57.3103 283.973 59.1915C283.186 61.9241 283.441 63.8046 284.719 64.8343C286.001 65.8461 288.167 66.3592 291.239 66.3592C292.948 66.3592 294.8 65.9868 296.792 65.2595C298.785 64.5322 300.689 63.5211 302.509 62.2073ZM240.602 78.5671C232.673 78.5671 227.346 77.0421 224.622 73.99C221.879 70.9378 221.514 65.9519 223.508 59.0319L231.372 31.742H223.916L227.574 19.0543H235.027L239.834 2.37635H259.276L254.47 19.0543H273.21L269.553 31.742H250.814L244.857 52.4137C244.264 54.4711 243.772 56.2456 243.369 57.7723C242.967 59.298 242.877 60.6643 243.08 61.8705C243.24 63.0951 243.892 64.0536 244.997 64.7635C246.102 65.4722 247.915 65.8267 250.438 65.8267C251.481 65.8267 252.908 65.6142 254.714 65.2066C256.525 64.7814 257.807 64.4088 258.574 64.0536H260.242L256.54 76.8994C254.288 77.4145 251.914 77.8221 249.454 78.124C246.997 78.4261 244.054 78.5671 240.602 78.5671ZM188.014 47.5871L186.919 22.0888L171.112 47.5871H188.014ZM131.954 77.4319L182.217 0.0341797H204.883L210.538 77.4319H189.143L188.502 61.622H162.535L152.801 77.4319H131.954Z" fill="white"/>
<path fill-rule="evenodd" clip-rule="evenodd" d="M344.275 96.1412V93.6832C344.089 91.6116 342.899 90.5754 340.7 90.5754H337.023C334.529 90.5754 333.284 91.6116 333.284 93.6832V96.1104C333.373 98.1592 334.619 99.184 337.023 99.184H340.7C341.828 99.184 342.707 98.8923 343.334 98.3085C343.959 97.7226 344.275 97.0005 344.275 96.1412ZM327.931 97.0196V92.9004C327.951 91.6308 328.249 90.543 328.819 89.6389C329.392 88.7362 330.197 88.0505 331.238 87.5844C332.276 87.1172 333.484 86.885 334.857 86.885H339.7C341.163 86.885 342.249 87.1387 342.952 87.6473C343.655 88.1557 344.095 88.582 344.275 88.9245V86.885H349.627V103.62C349.627 104.979 349.36 106.134 348.825 107.083C348.29 108.031 347.476 108.754 346.383 109.252C345.293 109.75 343.945 109.999 342.346 109.999H334.637C333.466 109.999 332.404 109.765 331.45 109.295C330.495 108.827 329.749 108.169 329.214 107.324C328.679 106.477 328.411 105.513 328.411 104.433H333.794C333.794 104.914 334.006 105.345 334.432 105.73C334.857 106.116 335.409 106.308 336.085 106.308H341.566C342.394 106.308 343.054 106.089 343.542 105.65C344.029 105.214 344.275 104.624 344.275 103.88V100.545C344.185 100.813 343.952 101.131 343.574 101.498C343.195 101.863 342.686 102.185 342.048 102.462C341.414 102.738 340.67 102.877 339.825 102.877H334.637C333.199 102.877 331.978 102.616 330.978 102.095C329.975 101.572 329.219 100.867 328.709 99.9793C328.201 99.0913 327.94 98.1043 327.931 97.0196Z" fill="white"/>
<path fill-rule="evenodd" clip-rule="evenodd" d="M352.628 102.877V86.885H357.98V89.208C358.448 88.6501 358.836 88.2285 359.146 87.9438C359.456 87.6585 359.889 87.4113 360.449 87.2001C361.006 86.9905 361.712 86.885 362.563 86.885H365.232C367.861 86.885 369.669 87.4688 370.659 88.6398C371.647 89.8099 372.163 91.3932 372.198 93.3904H366.845C366.692 92.7688 366.532 92.2726 366.36 91.9008C366.19 91.5292 365.889 91.2154 365.454 90.9604C365.021 90.7044 364.411 90.5754 363.625 90.5754H361.657C360.586 90.5754 359.706 90.9436 359.015 91.6782C358.325 92.4146 357.98 93.3298 357.98 94.4267V102.877H352.628Z" fill="white"/>
<path fill-rule="evenodd" clip-rule="evenodd" d="M391.07 93.6528C391.041 91.6231 389.89 90.6081 387.624 90.6081H383.977C382.724 90.6081 381.803 90.852 381.215 91.3368C380.628 91.8213 380.332 92.5824 380.332 93.6212L380.333 96.2372C380.333 97.2338 380.628 97.965 381.215 98.4304C381.803 98.8979 382.724 99.1388 383.977 99.1546H387.624C388.809 99.1546 389.673 98.9295 390.213 98.4786C390.754 98.028 391.041 97.2706 391.07 96.2056V93.6528ZM381.978 86.9172H389.458C390.963 86.9172 392.234 87.1888 393.267 87.7309C394.303 88.2737 395.075 89.0213 395.586 89.9725C396.099 90.9237 396.366 92.0089 396.393 93.2257L396.394 96.594C396.366 97.8002 396.089 98.8776 395.558 99.8263C395.028 100.775 394.247 101.52 393.217 102.064C392.184 102.607 390.931 102.878 389.458 102.878H381.978C380.525 102.878 379.269 102.611 378.214 102.079C377.161 101.547 376.36 100.802 375.813 99.8429C375.267 98.8828 374.989 97.7888 374.98 96.5606V93.2257C374.99 92.0284 375.255 90.9525 375.778 89.9971C376.3 89.0397 377.086 88.2875 378.136 87.7389C379.187 87.1911 380.468 86.9172 381.978 86.9172Z" fill="white"/>
<path fill-rule="evenodd" clip-rule="evenodd" d="M411.935 102.878H406.809C405.361 102.878 404.115 102.631 403.072 102.138C402.031 101.646 401.231 100.897 400.675 99.8936C400.12 98.8888 399.84 97.6396 399.84 96.1424L399.84 86.8457H405.226V94.8141C405.226 96.3274 405.603 97.4335 406.359 98.1342C407.117 98.8354 408.275 99.1852 409.841 99.1852H411.935C413.325 99.1852 414.441 98.8022 415.284 98.035C416.127 97.2688 416.547 96.1957 416.547 94.8141V86.8457H421.9V102.878H416.547V100.839C416.264 101.26 415.992 101.599 415.732 101.858C415.474 102.117 415.036 102.35 414.421 102.561C413.808 102.772 412.978 102.878 411.935 102.878Z" fill="white"/>
<path fill-rule="evenodd" clip-rule="evenodd" d="M441.826 96.1728V93.5798C441.826 91.5784 440.577 90.5754 438.078 90.5754H434.244C433.101 90.5754 432.237 90.8394 431.658 91.367C431.077 91.893 430.779 92.632 430.764 93.5798L430.765 96.1728C430.794 98.1813 431.955 99.1841 434.244 99.1841H438.078C440.577 99.1841 441.826 98.1813 441.826 96.1728ZM435.369 86.885H440.212C442.468 86.885 444.194 87.4123 445.388 88.4695C446.581 89.526 447.179 91.069 447.179 93.0974V96.5929C447.179 97.783 446.924 98.8545 446.415 99.8046C445.906 100.757 445.127 101.507 444.077 102.054C443.026 102.603 441.738 102.877 440.212 102.877H435.402C434.327 102.877 433.371 102.65 432.535 102.192C431.7 101.738 431.109 101.23 430.764 100.672L430.765 109.287H425.412V86.885H430.765V88.7895C431.372 88.2197 432.022 87.7603 432.713 87.41C433.404 87.0597 434.289 86.885 435.369 86.885Z" fill="white"/>
</svg>
