<svg width="120" height="24" viewBox="0 0 120 24" fill="none" xmlns="http://www.w3.org/2000/svg">
<g clip-path="url(#clip0)">
<path d="M6.53233 17.08H4.48387V23.1798H0V7.24731H4.48387V13.4382H6.64614L10.4472 7.24731H15.1814L10.1968 14.9404L15.2269 23.1798H10.1513L6.53233 17.08Z" fill="white"/>
<path d="M27.2882 20.0844H20.551L19.2992 23.1798H14.7015L21.7346 7.24731H26.1729L33.2287 23.1798H28.54L27.2882 20.0844ZM25.9681 16.7613L23.9196 11.6629L21.8711 16.7613H25.9681Z" fill="white"/>
<path d="M50.0084 7.24731V23.1798H45.5473V10.8208H39.4929V23.1798H35.0546V7.24731H50.0084Z" fill="white"/>
<path d="M53.4143 7.24731H57.8527V16.602L64.4305 7.24731H68.664V23.1798H64.2257V13.8479L57.6706 23.1798H53.4143V7.24731Z" fill="white"/>
<path d="M84.9223 10.8208H80.0515V23.1798H75.6132V10.8208H70.7196V7.24731H84.9223V10.8208Z" fill="white"/>
<path d="M97.193 20.0844H90.4558L89.204 23.1798H84.6063L91.6394 7.24731H96.0777L103.134 23.1798H98.4449L97.193 20.0844ZM95.8729 16.7613L93.8244 11.6629L91.776 16.7613H95.8729Z" fill="white"/>
<path d="M120 7.24731V23.1798H115.562V10.8208H110.987L110.896 13.4155C110.82 15.6916 110.63 17.5428 110.327 18.9691C110.038 20.3954 109.538 21.5031 108.824 22.2922C108.111 23.066 107.102 23.453 105.797 23.453C105.19 23.453 104.508 23.3619 103.749 23.1798L103.999 19.4926C104.196 19.5381 104.401 19.5609 104.614 19.5609C105.206 19.5609 105.661 19.3257 105.979 18.8553C106.298 18.3849 106.526 17.7324 106.662 16.8979C106.799 16.0481 106.89 14.948 106.935 13.5976L107.163 7.24731H120Z" fill="white"/>
<path d="M0.019043 0H15.18V3.57743L0.019043 3.57743V0Z" fill="white"/>
</g>
<defs>
<clipPath id="clip0">
<rect width="120" height="23.453" fill="white"/>
</clipPath>
</defs>
</svg>
